<svg width="16" height="17" viewBox="0 0 16 17" fill="none" xmlns="http://www.w3.org/2000/svg">
<path fill-rule="evenodd" clip-rule="evenodd" d="M1 8.50039C1 8.36778 1.05268 8.2406 1.14645 8.14683C1.24021 8.05307 1.36739 8.00039 1.5 8.00039H13.293L10.146 4.85439C10.0521 4.7605 9.99937 4.63316 9.99937 4.50039C9.99937 4.36761 10.0521 4.24027 10.146 4.14639C10.2399 4.0525 10.3672 3.99976 10.5 3.99976C10.6328 3.99976 10.7601 4.0525 10.854 4.14639L14.854 8.14639C14.9006 8.19283 14.9375 8.24801 14.9627 8.30875C14.9879 8.3695 15.0009 8.43462 15.0009 8.50039C15.0009 8.56615 14.9879 8.63128 14.9627 8.69202C14.9375 8.75277 14.9006 8.80794 14.854 8.85439L10.854 12.8544C10.7601 12.9483 10.6328 13.001 10.5 13.001C10.3672 13.001 10.2399 12.9483 10.146 12.8544C10.0521 12.7605 9.99937 12.6332 9.99937 12.5004C9.99937 12.3676 10.0521 12.2403 10.146 12.1464L13.293 9.00039H1.5C1.36739 9.00039 1.24021 8.94771 1.14645 8.85394C1.05268 8.76017 1 8.633 1 8.50039Z" fill="white"/>
</svg>
