<svg width="17" height="17" viewBox="0 0 17 17" fill="none" xmlns="http://www.w3.org/2000/svg">
<path fill-rule="evenodd" clip-rule="evenodd" d="M1.44482 8.50063C1.44482 8.36802 1.4975 8.24085 1.59127 8.14708C1.68504 8.05331 1.81222 8.00063 1.94482 8.00063H13.7378L10.5908 4.85463C10.4969 4.76075 10.4442 4.63341 10.4442 4.50063C10.4442 4.36786 10.4969 4.24052 10.5908 4.14663C10.6847 4.05274 10.812 4 10.9448 4C11.0776 4 11.2049 4.05274 11.2988 4.14663L15.2988 8.14663C15.3454 8.19308 15.3823 8.24825 15.4075 8.309C15.4327 8.36974 15.4457 8.43486 15.4457 8.50063C15.4457 8.5664 15.4327 8.63152 15.4075 8.69226C15.3823 8.75301 15.3454 8.80819 15.2988 8.85463L11.2988 12.8546C11.2049 12.9485 11.0776 13.0013 10.9448 13.0013C10.812 13.0013 10.6847 12.9485 10.5908 12.8546C10.4969 12.7607 10.4442 12.6334 10.4442 12.5006C10.4442 12.3679 10.4969 12.2405 10.5908 12.1466L13.7378 9.00063H1.94482C1.81222 9.00063 1.68504 8.94795 1.59127 8.85419C1.4975 8.76042 1.44482 8.63324 1.44482 8.50063V8.50063Z" fill="#008CB8"/>
</svg>
