<svg width="25" height="24" viewBox="0 0 25 24" fill="none" xmlns="http://www.w3.org/2000/svg">
<path d="M8.48878 4.50301L15.7968 12L8.48878 19.497C8.35795 19.631 8.2847 19.8108 8.2847 19.998C8.2847 20.1852 8.35795 20.3651 8.48878 20.499C8.55233 20.5639 8.62818 20.6154 8.71189 20.6506C8.7956 20.6857 8.88548 20.7039 8.97628 20.7039C9.06708 20.7039 9.15697 20.6857 9.24068 20.6506C9.32439 20.6154 9.40024 20.5639 9.46378 20.499L17.2398 12.5235C17.3763 12.3834 17.4527 12.1956 17.4527 12C17.4527 11.8044 17.3763 11.6166 17.2398 11.4765L9.46528 3.50101C9.40169 3.43569 9.32565 3.38378 9.24167 3.34833C9.15768 3.31289 9.06744 3.29462 8.97628 3.29462C8.88512 3.29462 8.79488 3.31289 8.7109 3.34833C8.62691 3.38378 8.55088 3.43569 8.48728 3.50101C8.35645 3.63496 8.2832 3.81477 8.2832 4.00201C8.2832 4.18925 8.35645 4.36906 8.48728 4.50301L8.48878 4.50301Z" fill="white"/>
</svg>
