<svg width="24" height="24" viewBox="0 0 24 24" fill="none" xmlns="http://www.w3.org/2000/svg">
<path d="M16.011 4.50301L8.70297 12L16.011 19.497C16.1418 19.631 16.2151 19.8108 16.2151 19.998C16.2151 20.1852 16.1418 20.3651 16.011 20.499C15.9474 20.5639 15.8716 20.6154 15.7879 20.6506C15.7042 20.6857 15.6143 20.7039 15.5235 20.7039C15.4327 20.7039 15.3428 20.6857 15.2591 20.6506C15.1754 20.6154 15.0995 20.5639 15.036 20.499L7.25997 12.5235C7.12345 12.3834 7.04705 12.1956 7.04705 12C7.04705 11.8044 7.12345 11.6166 7.25997 11.4765L15.0345 3.50101C15.0981 3.43569 15.1741 3.38378 15.2581 3.34833C15.3421 3.31289 15.4323 3.29462 15.5235 3.29462C15.6146 3.29462 15.7049 3.31289 15.7889 3.34833C15.8728 3.38378 15.9489 3.43569 16.0125 3.50101C16.1433 3.63496 16.2166 3.81477 16.2166 4.00201C16.2166 4.18925 16.1433 4.36906 16.0125 4.50301L16.011 4.50301Z" fill="#B34487"/>
</svg>
