<svg width="64" height="65" viewBox="0 0 64 65" fill="none" xmlns="http://www.w3.org/2000/svg">
<g clip-path="url(#clip0_5_430)">
<path d="M32.0489 53.3026C43.3812 53.3026 52.5679 44.1159 52.5679 32.7835C52.5679 21.4511 43.3812 12.2644 32.0489 12.2644C20.7165 12.2644 11.5298 21.4511 11.5298 32.7835C11.5298 44.1159 20.7165 53.3026 32.0489 53.3026Z" fill="white"/>
<path d="M44.7511 16.6614C47.5847 20.1789 49.2458 24.5759 49.2458 29.4614C49.2458 40.7957 40.0611 49.9805 28.7267 49.9805C23.8412 49.9805 19.4443 48.3194 15.9267 45.4858C19.6397 50.1759 25.5023 53.2049 31.9511 53.2049C43.2855 53.2049 52.4702 44.0202 52.4702 32.6858C52.5679 26.237 49.5389 20.4721 44.7511 16.6614Z" fill="#DD8ABC"/>
<path d="M32.0489 53.9865C20.3237 53.9865 10.7481 44.411 10.7481 32.6858C10.7481 20.9606 20.3237 11.385 32.0489 11.385C43.774 11.385 53.3496 20.9606 53.3496 32.6858C53.2519 44.411 43.6763 53.9865 32.0489 53.9865ZM32.0489 12.9484C21.1053 12.9484 12.2137 21.84 12.2137 32.7835C12.2137 43.727 21.1053 52.5209 32.0489 52.5209C42.9924 52.5209 51.7863 43.6293 51.7863 32.7835C51.7863 21.9377 42.8947 12.9484 32.0489 12.9484Z" fill="#655E62"/>
<path d="M44.7511 28.4843C44.7511 24.869 41.7221 22.0354 37.9114 22.0354C35.371 22.0354 33.2214 23.3056 32.0488 25.2598C30.8763 23.3056 28.629 22.0354 26.1863 22.0354C22.3756 22.0354 19.3466 24.9667 19.3466 28.4843C19.3466 36.1056 32.0488 43.5316 32.0488 43.5316C32.0488 43.5316 44.7511 36.1056 44.7511 28.4843Z" fill="white"/>
<path d="M37.9115 22.0354C36.7389 22.0354 35.6641 22.3285 34.7847 22.8171C37.0321 24.2827 38.4 26.6278 38.4 29.3636C38.4 34.1514 34.1985 38.9392 30.1924 42.3591C31.2672 43.1407 32.0489 43.5316 32.0489 43.5316C32.0489 43.5316 44.7511 36.2033 44.7511 28.4843C44.7511 24.869 41.6244 22.0354 37.9115 22.0354Z" fill="#DD8ABC"/>
<path d="M32.0488 44.2156C31.9511 44.2156 31.7557 44.2156 31.658 44.1179C31.1695 43.8248 18.5649 36.3988 18.5649 28.4843C18.5649 24.4782 21.9847 21.2538 26.0885 21.2538C28.3359 21.2538 30.5832 22.2309 31.9511 23.9897C33.4168 22.3286 35.5664 21.2538 37.8137 21.2538C42.0153 21.2538 45.3374 24.4782 45.3374 28.4843C45.3374 36.4965 32.8305 43.8248 32.2443 44.1179C32.2443 44.2156 32.1466 44.2156 32.0488 44.2156ZM26.0885 22.7194C22.7664 22.7194 20.0305 25.2599 20.0305 28.4843C20.0305 34.9332 29.9969 41.382 32.0488 42.6523C34.1008 41.382 43.9695 34.9332 43.9695 28.4843C43.9695 25.3576 41.2336 22.7194 37.9114 22.7194C35.7618 22.7194 33.7099 23.7942 32.6351 25.553C32.342 25.9439 31.658 25.9439 31.3649 25.553C30.2901 23.7942 28.2382 22.7194 26.0885 22.7194Z" fill="#655E62"/>
<path d="M59.7008 49.3942C59.4076 50.9575 58.3328 52.3255 56.8672 52.9117L44.6534 57.6018C42.2107 58.5789 39.4748 57.211 38.6931 54.6705C38.2046 52.814 39.1817 50.8598 41.0382 50.2736L43.4809 49.4919C50.3206 48.0262 54.3267 45.4858 56.8672 45.4858C59.2122 45.3881 60.1893 47.44 59.7008 49.3942Z" fill="white"/>
<path d="M57.7466 45.4858C57.4534 47.0492 56.3786 48.4171 54.913 48.9057L42.6992 53.5958C41.3313 54.182 39.7679 53.8889 38.5954 53.1072C38.4977 53.5958 38.5954 54.0843 38.6931 54.4752C39.3771 57.0156 42.113 58.3836 44.6534 57.4065L56.8672 52.7164C58.4305 52.1301 59.5053 50.7622 59.7008 49.1988C60.0916 47.7332 59.5053 45.9744 57.7466 45.4858Z" fill="#DD8ABC"/>
<path d="M42.9924 58.5789C42.2107 58.5789 41.429 58.3835 40.6473 57.9927C39.3771 57.3087 38.4 56.1362 38.0092 54.7682C37.4229 52.5209 38.5954 50.1759 40.8428 49.4919L43.2855 48.7102C46.9008 47.9285 49.6366 46.8537 51.884 46.072C53.9359 45.2904 55.597 44.7041 56.9649 44.7041C58.1374 44.7041 59.2122 45.0949 59.7985 45.9743C60.4824 46.8537 60.7756 48.2217 60.4824 49.4919C60.1893 51.3484 58.9191 52.9117 57.1603 53.5957L44.9466 58.2858C44.2626 58.4812 43.6763 58.5789 42.9924 58.5789ZM56.9649 46.1698C55.8901 46.1698 54.3267 46.756 52.3725 47.5377C50.1252 48.4171 47.2916 49.4919 43.6763 50.2736L41.3313 51.0552C39.8657 51.5438 38.9863 53.0094 39.4748 54.5728C39.7679 55.6476 40.4519 56.4293 41.429 56.9178C42.4061 57.4064 43.4809 57.4064 44.458 57.1133L56.6718 52.4232C57.942 51.9346 58.8214 50.7621 59.0168 49.4919C59.0168 49.4919 59.0168 49.4919 59.0168 49.3942C59.2122 48.5148 59.1145 47.6354 58.626 47.0491C58.2351 46.3652 57.6489 46.1698 56.9649 46.1698Z" fill="#655E62"/>
<path d="M62.4366 49.2966C60.5802 47.7332 55.3038 52.521 41.7221 55.0614C43.4809 54.3775 44.1649 53.4004 44.2626 52.4233C44.5557 47.9286 40.6473 48.124 40.6473 48.124C20.6168 48.3195 35.8595 43.6294 8.59848 43.434V61.0217C8.59848 61.0217 38.5954 71.1836 61.3618 53.6935C61.2641 53.7912 64.8794 51.3485 62.4366 49.2966Z" fill="white"/>
<path d="M62.4366 49.2966C62.1435 49.0034 61.655 48.9057 61.0687 49.0034C60.4825 50.0782 59.4076 50.7622 59.4076 50.7622C40.1588 65.6141 15.6336 60.5332 8.59848 58.579V60.924C8.59848 60.924 38.5954 71.0859 61.3618 53.5958C61.2641 53.7912 64.8794 51.3485 62.4366 49.2966Z" fill="#DD8ABC"/>
<path d="M28.8244 64.7347C17.1969 64.7347 8.50076 61.8034 8.30534 61.8034C8.01221 61.608 7.81679 61.3149 7.81679 61.0218V43.434C7.81679 43.2386 7.9145 43.0431 8.01221 42.9454C8.20763 42.8477 8.40305 42.75 8.59847 42.75C23.3527 42.8477 25.8931 44.3134 28.1405 45.5836C29.9969 46.6584 31.5603 47.5378 40.6473 47.4401C40.6473 47.4401 42.5038 47.3424 43.774 48.7103C44.6534 49.5897 45.0443 50.9576 44.9466 52.521C44.9466 52.9118 44.8488 53.3027 44.5557 53.7912C50.1252 52.521 54.0336 50.8599 56.7695 49.7851C59.8962 48.5149 61.655 47.7332 62.9252 48.808C63.9023 49.5897 64.0977 50.4691 64.0977 51.0553C64 52.8141 62.0458 54.2798 61.7527 54.3775C51.1023 62.4874 38.8885 64.7347 28.8244 64.7347ZM9.28244 60.5332C13.2885 61.7057 40.2565 69.034 60.8733 53.205C61.3618 52.9118 62.5343 51.837 62.5343 50.9576C62.5343 50.8599 62.5343 50.3714 61.9481 49.8828C61.3618 49.3943 59.7008 50.176 57.3557 51.1531C54.1313 52.521 49.1481 54.4752 41.9176 55.9408C41.5267 56.0386 41.1359 55.7454 41.0382 55.4523C40.9405 55.0615 41.1359 54.6706 41.5267 54.5729C42.7969 54.0844 43.4809 53.4004 43.5786 52.521C43.6763 51.2508 43.3832 50.3714 42.7969 49.7851C42.0153 49.0034 40.745 49.0034 40.745 49.0034C31.0718 49.0034 29.313 48.0263 27.3588 46.8538C25.3069 45.6813 23.0595 44.3134 9.28244 44.2156V60.5332Z" fill="#655E62"/>
<path d="M34.8825 56.6248C32.4397 56.6248 29.6061 56.4293 26.3817 55.9408C25.9908 55.8431 25.6977 55.55 25.7954 55.1591C25.8931 54.7683 26.1863 54.4751 26.5771 54.5729C34.9802 55.6477 39.2794 55.0614 41.5267 54.3774C41.9176 54.2797 42.3084 54.4751 42.4061 54.866C42.5038 55.2568 42.3084 55.6477 41.9176 55.7454C40.0611 56.3316 37.716 56.6248 34.8825 56.6248Z" fill="#655E62"/>
<path d="M8.59847 43.434H0.781677V61.0217H8.59847V43.434Z" fill="#DD8ABC"/>
<path d="M4.69007 59.0675H0.781677V43.434H6.64427V57.1133C6.64427 58.2859 5.76488 59.0675 4.69007 59.0675Z" fill="white"/>
<path d="M8.59847 61.8034H0.781679C0.39084 61.8034 0 61.5103 0 61.0218V43.434C0 43.0431 0.29313 42.75 0.781679 42.75H8.59847C8.98931 42.75 9.38015 43.0431 9.38015 43.5317V61.1195C9.28244 61.5103 8.98931 61.8034 8.59847 61.8034ZM1.46565 60.3378H7.81679V44.2156H1.46565V60.3378Z" fill="#655E62"/>
<path d="M4.69008 58.0904C5.22972 58.0904 5.66718 57.653 5.66718 57.1133C5.66718 56.5737 5.22972 56.1362 4.69008 56.1362C4.15044 56.1362 3.71298 56.5737 3.71298 57.1133C3.71298 57.653 4.15044 58.0904 4.69008 58.0904Z" fill="#655E62"/>
<path d="M61.3618 44.2156C61.2641 44.2156 61.1664 44.2156 61.0687 44.2156C60.6779 44.1179 60.4824 43.6293 60.6779 43.2385C61.9481 39.9164 62.5344 36.3988 62.5344 32.7835C62.5344 32.0996 62.5344 31.4156 62.4366 30.7316C62.4366 30.3408 62.7298 29.95 63.1206 29.95C63.5114 29.95 63.9023 30.2431 63.9023 30.6339C63.9023 31.3179 64 32.0996 64 32.7835C64 36.5942 63.316 40.3072 62.0458 43.8248C61.9481 44.0202 61.655 44.2156 61.3618 44.2156Z" fill="white"/>
<path d="M59.5054 18.5178C59.2122 18.5178 59.0168 18.4201 58.8214 18.127C53.4473 8.35599 43.1878 2.20027 32.0489 2.20027C31.658 2.20027 31.2672 1.90714 31.2672 1.41859C31.2672 0.930039 31.5603 0.734619 32.0489 0.734619C43.7741 0.734619 54.6199 7.18347 60.1893 17.443C60.3847 17.8339 60.287 18.2247 59.8962 18.4201C59.7008 18.5178 59.6031 18.5178 59.5054 18.5178Z" fill="white"/>
<path d="M0.781679 33.4675C0.39084 33.4675 0 33.1743 0 32.6858C0 21.5469 5.96031 10.9942 15.6336 5.2293C16.0244 5.03388 16.4153 5.13159 16.6107 5.52243C16.8061 5.91327 16.7084 6.30411 16.3176 6.49953C7.13283 11.9713 1.46565 22.0354 1.46565 32.7835C1.46565 33.1743 1.17252 33.4675 0.781679 33.4675Z" fill="white"/>
<path d="M57.258 38.9392C57.1603 38.9392 57.1603 38.9392 57.0626 38.9392C56.6718 38.8415 56.3786 38.4507 56.4763 38.0598C56.8672 36.3011 57.0626 34.5423 57.0626 32.6858C57.0626 26.6278 54.913 20.7652 50.9069 16.1728C50.6137 15.8797 50.7115 15.3911 51.0046 15.098C51.2977 14.8049 51.7863 14.9026 52.0794 15.1957C56.2809 19.9835 58.626 26.2369 58.626 32.5881C58.626 34.5423 58.4305 36.3988 58.0397 38.2553C57.942 38.7438 57.6489 38.9392 57.258 38.9392Z" fill="white"/>
<path d="M11.6275 17.5408C11.4321 17.5408 11.3343 17.443 11.1389 17.3453C10.8458 17.0522 10.7481 16.6614 11.0412 16.2705C16.1221 9.72396 23.7435 6.01099 32.0489 6.01099C34.2962 6.01099 36.6412 6.30412 38.7908 6.89038C39.1817 6.98809 39.3771 7.37892 39.2794 7.76976C39.1817 8.1606 38.7908 8.35602 38.4 8.25831C36.3481 7.86747 34.1985 7.57434 32.0489 7.57434C24.2321 7.57434 17.0015 11.0919 12.2137 17.2476C12.0183 17.443 11.8229 17.5408 11.6275 17.5408Z" fill="white"/>
<path d="M7.13282 40.5027C6.8397 40.5027 6.54657 40.3072 6.44886 40.0141C5.76489 37.6691 5.47176 35.2263 5.47176 32.7836C5.47176 31.0248 5.66718 29.266 5.96031 27.605C6.05802 27.2141 6.44886 26.921 6.83969 27.0187C7.23053 27.1164 7.52366 27.5072 7.42595 27.8981C7.13282 29.4614 6.9374 31.1225 6.9374 32.7836C6.9374 35.1286 7.23054 37.4737 7.9145 39.6233C8.01221 40.0141 7.81679 40.405 7.42595 40.5027C7.23053 40.5027 7.13282 40.5027 7.13282 40.5027Z" fill="white"/>
<path d="M63.316 24.5759H59.4076C59.0168 24.5759 58.626 24.2828 58.626 23.7943C58.626 23.4034 58.9191 23.0126 59.4076 23.0126H63.316C63.7069 23.0126 64.0977 23.3057 64.0977 23.7943C64 24.2828 63.7069 24.5759 63.316 24.5759Z" fill="white"/>
<path d="M61.3618 26.5301C60.971 26.5301 60.5802 26.237 60.5802 25.7484V21.84C60.5802 21.4492 60.8733 21.0583 61.3618 21.0583C61.8504 21.0583 62.1435 21.3515 62.1435 21.84V25.7484C62.0458 26.237 61.7527 26.5301 61.3618 26.5301Z" fill="white"/>
<path d="M47.5847 10.8965H43.6763C43.2855 10.8965 42.8947 10.6034 42.8947 10.1148C42.8947 9.72397 43.1878 9.33313 43.6763 9.33313H47.5847C47.9756 9.33313 48.3664 9.62626 48.3664 10.1148C48.3664 10.6034 48.0733 10.8965 47.5847 10.8965Z" fill="white"/>
<path d="M45.6305 12.8507C45.2397 12.8507 44.8489 12.5575 44.8489 12.069V8.16059C44.8489 7.76975 45.142 7.37891 45.6305 7.37891C46.0214 7.37891 46.4122 7.67204 46.4122 8.16059V12.069C46.4122 12.5575 46.1191 12.8507 45.6305 12.8507Z" fill="white"/>
<path d="M25.1114 4.15449H21.2031C20.8122 4.15449 20.4214 3.86136 20.4214 3.37281C20.4214 2.88426 20.8122 2.68884 21.2031 2.68884H25.1114C25.5023 2.68884 25.8931 2.98197 25.8931 3.47052C25.8931 3.95907 25.5023 4.15449 25.1114 4.15449Z" fill="white"/>
<path d="M23.1573 6.10872C22.7664 6.10872 22.3756 5.81559 22.3756 5.32704V1.41864C22.3756 1.0278 22.6687 0.636963 23.1573 0.636963C23.5481 0.636963 23.9389 0.930093 23.9389 1.41864V5.32704C23.8412 5.81559 23.5481 6.10872 23.1573 6.10872Z" fill="white"/>
<path d="M10.455 22.7194H6.54657C6.15573 22.7194 5.76489 22.4262 5.76489 21.9377C5.76489 21.5468 6.05802 21.156 6.54657 21.156H10.455C10.8458 21.156 11.2366 21.4491 11.2366 21.9377C11.1389 22.4262 10.8458 22.7194 10.455 22.7194Z" fill="white"/>
<path d="M8.50076 24.6737C8.10993 24.6737 7.71909 24.3805 7.71909 23.892V19.9836C7.71909 19.5927 8.01222 19.2019 8.50076 19.2019C8.8916 19.2019 9.28244 19.495 9.28244 19.9836V23.892C9.18473 24.3805 8.8916 24.6737 8.50076 24.6737Z" fill="white"/>
</g>
<defs>
<clipPath id="clip0_5_430">
<rect width="64" height="64" fill="white" transform="translate(0 0.734619)"/>
</clipPath>
</defs>
</svg>
