<svg width="47" height="49" viewBox="0 0 47 49" fill="none" xmlns="http://www.w3.org/2000/svg">
<g clip-path="url(#clip0_28_62)">
<path d="M40.0971 37.8512C39.0125 37.8512 38.0061 37.8512 36.9983 37.8512C35.5107 37.8417 34.6359 36.9814 34.6345 35.5037C34.629 31.4312 34.629 27.3592 34.6345 23.2876C34.6345 21.8439 35.5312 20.9619 36.9654 20.9578C37.9883 20.9578 39.0111 20.9578 40.0477 20.9578C40.3219 16.9976 39.6761 13.2964 37.4426 9.9155C37.3205 10.0218 37.2054 10.1118 37.1025 10.2127C35.5216 11.7586 33.6829 11.7545 32.0828 10.2127C30.2359 8.4282 28.0531 7.29806 25.5014 6.94089C21.5786 6.38877 18.1549 7.4671 15.2906 10.195C14.3103 11.1274 13.2339 11.6182 11.9039 11.2338C11.3829 11.0824 10.914 10.7253 10.4533 10.4158C10.2682 10.2904 10.1681 10.0409 9.98435 9.78326C7.66988 13.2814 7.01037 16.9785 7.29145 20.9687H9.30152C9.67858 20.9687 10.0543 20.9687 10.4313 20.9687C11.7778 20.981 12.6964 21.8671 12.706 23.2058C12.7225 25.3189 12.706 27.4319 12.706 29.5436C12.706 31.5203 12.706 33.497 12.706 35.4737C12.706 36.9924 11.8422 37.858 10.3312 37.8621C8.86002 37.8621 7.38742 37.8907 5.91895 37.8471C4.53442 37.8007 3.22039 37.2287 2.24697 36.2487C1.27355 35.2687 0.714716 33.9552 0.685349 32.5782C0.648328 30.4665 0.652442 28.3521 0.685349 26.2404C0.719627 23.912 2.34167 21.848 4.63009 21.1964C4.98521 21.0941 5.07707 20.9469 5.06885 20.602C5.01537 18.2627 5.05788 15.9288 5.78732 13.6726C8.11138 6.47738 12.9761 1.9773 20.4241 0.566337C30.3264 -1.31086 39.8941 5.25591 41.9083 15.0931C42.2744 16.8762 42.2923 18.6798 42.2593 20.4861C42.2525 20.8951 42.3334 21.0941 42.7831 21.2264C43.8994 21.5584 44.8783 22.2392 45.5748 23.1679C46.2712 24.0966 46.6482 25.2237 46.6497 26.3822C46.6689 28.3248 46.6497 30.2674 46.6497 32.2087C46.6497 34.8984 45.1552 36.9024 42.5816 37.6876C42.4856 37.7162 42.3923 37.7517 42.2635 37.7953C42.2635 38.4769 42.2635 39.1586 42.2635 39.8402C42.2429 43.1979 39.9106 45.5045 36.5308 45.5086C33.8799 45.5086 31.2291 45.5086 28.5782 45.5086C28.532 45.5143 28.4862 45.523 28.4411 45.5345C28.3863 45.6708 28.3273 45.8208 28.256 45.968C27.6445 47.2208 26.6696 48.0429 25.2656 48.1669C24.194 48.2692 23.115 48.2692 22.0434 48.1669C20.0676 47.9651 18.654 46.2025 18.7527 44.2053C18.8432 42.2763 20.468 40.6609 22.4164 40.6131C23.4228 40.5886 24.4429 40.5586 25.4329 40.6881C26.7848 40.864 27.7336 41.686 28.2738 42.9266C28.4109 43.251 28.5741 43.3451 28.9128 43.3437C31.4782 43.3301 34.0435 43.3437 36.6089 43.3328C38.6985 43.3328 40.0834 41.9396 40.0916 39.8688C40.0998 39.209 40.0971 38.5642 40.0971 37.8512Z" fill="white"/>
</g>
<defs>
<clipPath id="clip0_28_62">
<rect width="46" height="48" fill="white" transform="translate(0.671631 0.230957)"/>
</clipPath>
</defs>
</svg>
