<svg width="78" height="64" viewBox="0 0 78 64" fill="none" xmlns="http://www.w3.org/2000/svg">
<path d="M70.4453 10.5527H7.65283V2.73594C7.65283 1.66113 8.53585 0.781738 9.6151 0.781738H68.483C69.5623 0.781738 70.4453 1.66113 70.4453 2.73594V10.5527Z" fill="#DD8ABC"/>
<path d="M59.5547 7.62143H7.55472V2.73594C7.55472 1.66113 8.43774 0.781738 9.51698 0.781738H61.517V5.66723C61.517 6.74204 60.7321 7.62143 59.5547 7.62143Z" fill="white"/>
<path d="M65.4415 6.64426C65.1472 6.64426 64.9509 6.54655 64.7547 6.35113C64.5585 6.15571 64.4604 5.86258 64.4604 5.66716C64.4604 5.37403 64.5585 5.17861 64.7547 4.98319C65.1472 4.59235 65.7358 4.59235 66.1283 4.98319C66.3245 5.17861 66.4226 5.37403 66.4226 5.66716C66.4226 5.96029 66.3245 6.15571 66.1283 6.35113C66.0302 6.44884 65.7358 6.64426 65.4415 6.64426Z" fill="#655E62"/>
<path d="M58.6717 5.56951C58.6717 4.98325 59.0641 4.59241 59.6528 4.59241C60.2415 4.59241 60.634 4.98325 60.634 5.56951C60.634 6.15577 60.2415 6.54661 59.6528 6.54661C59.0641 6.64432 58.6717 6.15577 58.6717 5.56951Z" fill="#655E62"/>
<path d="M53.6679 6.64426C53.3736 6.64426 53.1774 6.54655 52.9811 6.35113C52.7849 6.15571 52.6868 5.86258 52.6868 5.66716C52.6868 5.37403 52.7849 5.17861 52.9811 4.98319C53.3736 4.59235 53.9623 4.59235 54.3547 4.98319C54.5509 5.17861 54.6491 5.37403 54.6491 5.66716C54.6491 5.96029 54.5509 6.15571 54.3547 6.35113C54.2566 6.44884 53.9623 6.64426 53.6679 6.64426Z" fill="#655E62"/>
<path d="M70.4453 11.2366H7.65283C7.26038 11.2366 6.86793 10.9435 6.86793 10.455V2.63817C6.86793 1.17252 8.04529 0 9.6151 0H68.483C69.9547 0 71.2302 1.17252 71.2302 2.73588V10.5527C71.1321 10.9435 70.8377 11.2366 70.4453 11.2366ZM8.33963 9.77099H69.6604V2.73588C69.6604 2.05191 69.0717 1.46565 68.3849 1.46565H9.51698C8.83019 1.46565 8.24151 2.05191 8.24151 2.73588V9.77099H8.33963Z" fill="#655E62"/>
<path d="M70.4453 10.5526H7.65283V61.3618C7.65283 62.4366 8.53585 63.316 9.6151 63.316H68.483C69.5623 63.316 70.4453 62.4366 70.4453 61.3618V10.5526Z" fill="#DD8ABC"/>
<path d="M62.5962 10.5526H7.65283V60.3847H58.6717C60.8302 60.3847 62.5962 58.6259 62.5962 56.4763V10.5526Z" fill="white"/>
<path d="M68.483 64H9.6151C8.1434 64 6.86793 62.8275 6.86793 61.2641V10.455C6.86793 10.0641 7.16227 9.771 7.55472 9.771H70.3472C70.7396 9.771 71.1321 10.0641 71.1321 10.5527V61.3618C71.1321 62.8275 69.9547 64 68.483 64ZM8.33963 11.2366V61.3618C8.33963 62.0458 8.92831 62.6321 9.6151 62.6321H68.483C69.1698 62.6321 69.7585 62.0458 69.7585 61.3618V11.2366H8.33963Z" fill="#655E62"/>
<path d="M64.5585 17.0992H58.1811C57.7887 17.0992 57.3962 16.8061 57.3962 16.3176C57.3962 15.9267 57.6906 15.5359 58.1811 15.5359H64.5585C64.9509 15.5359 65.3434 15.829 65.3434 16.3176C65.2453 16.8061 64.9509 17.0992 64.5585 17.0992Z" fill="#655E62"/>
<path d="M54.2566 17.0992H48.8604C48.4679 17.0992 48.0755 16.8061 48.0755 16.3176C48.0755 15.9267 48.3698 15.5359 48.8604 15.5359H54.2566C54.6491 15.5359 55.0415 15.829 55.0415 16.3176C54.9434 16.8061 54.6491 17.0992 54.2566 17.0992Z" fill="#655E62"/>
<path d="M64.5585 22.9618H48.8604C48.4679 22.9618 48.0755 22.6687 48.0755 22.1801C48.0755 21.7893 48.3698 21.3984 48.8604 21.3984H64.5585C64.9509 21.3984 65.3434 21.6916 65.3434 22.1801C65.2453 22.6687 64.9509 22.9618 64.5585 22.9618Z" fill="#655E62"/>
<path d="M64.5585 28.8245H60.1434C59.7509 28.8245 59.3585 28.5313 59.3585 28.0428C59.3585 27.6519 59.6528 27.2611 60.1434 27.2611H64.5585C64.9509 27.2611 65.3434 27.5542 65.3434 28.0428C65.2453 28.5313 64.9509 28.8245 64.5585 28.8245Z" fill="#655E62"/>
<path d="M56.2189 28.8245H48.8604C48.4679 28.8245 48.0755 28.5313 48.0755 28.0428C48.0755 27.6519 48.3698 27.2611 48.8604 27.2611H56.2189C56.6113 27.2611 57.0038 27.5542 57.0038 28.0428C56.9057 28.5313 56.6113 28.8245 56.2189 28.8245Z" fill="#655E62"/>
<path d="M64.5585 34.687H57.2C56.8076 34.687 56.4151 34.3939 56.4151 33.9053C56.4151 33.5145 56.7094 33.1237 57.2 33.1237H64.5585C64.951 33.1237 65.3434 33.4168 65.3434 33.9053C65.2453 34.3939 64.951 34.687 64.5585 34.687Z" fill="#655E62"/>
<path d="M53.2755 34.687H48.8604C48.4679 34.687 48.0755 34.3939 48.0755 33.9053C48.0755 33.5145 48.3698 33.1237 48.8604 33.1237H53.2755C53.6679 33.1237 54.0604 33.4168 54.0604 33.9053C53.9623 34.3939 53.6679 34.687 53.2755 34.687Z" fill="#655E62"/>
<path d="M59.5547 40.5496H48.7623C48.3698 40.5496 47.9774 40.2564 47.9774 39.7679C47.9774 39.377 48.2717 38.9862 48.7623 38.9862H59.5547C59.9472 38.9862 60.3396 39.2793 60.3396 39.7679C60.3396 40.2564 60.0453 40.5496 59.5547 40.5496Z" fill="#655E62"/>
<path d="M19.4264 45.7283H37.0868C40.3245 45.7283 42.9736 43.0901 42.9736 39.8657V22.2779C42.9736 19.0535 40.3245 16.4153 37.0868 16.4153H19.4264C16.1887 16.4153 13.5396 19.0535 13.5396 22.2779V39.8657C13.5396 43.0901 16.0906 45.7283 19.4264 45.7283Z" fill="#DD8ABC"/>
<path d="M18.4453 42.797H37.0868C38.7547 42.797 40.0302 41.5267 40.0302 39.8657V21.3008C40.0302 18.5649 37.8717 16.4153 35.1245 16.4153H19.4264C16.1887 16.4153 13.5396 19.0535 13.5396 22.2779V37.9115C13.5396 40.5496 15.6981 42.797 18.4453 42.797Z" fill="white"/>
<path d="M37.0868 46.4122H19.4264C15.7962 46.4122 12.8528 43.4809 12.8528 39.768V22.1802C12.8528 18.5649 15.7962 15.5359 19.4264 15.5359H37.0868C40.717 15.5359 43.7585 18.4672 43.7585 22.1802V39.768C43.6604 43.4809 40.717 46.4122 37.0868 46.4122ZM19.4264 17.0992C16.5811 17.0992 14.3245 19.4443 14.3245 22.2779V39.8657C14.3245 42.6992 16.6793 45.0443 19.4264 45.0443H37.0868C39.9321 45.0443 42.2868 42.6992 42.2868 39.8657V22.2779C42.2868 19.4443 39.9321 17.0992 37.0868 17.0992H19.4264Z" fill="#655E62"/>
<path d="M38.0679 40.8428L57.6906 47.487L48.7623 51.4932L44.7396 60.3848L38.0679 40.8428Z" fill="#DD8ABC"/>
<path d="M38.0679 40.8428L48.7623 51.4932L44.7396 60.3848L38.0679 40.8428Z" fill="white"/>
<path d="M44.7396 61.0687C44.4453 61.0687 44.151 60.8732 44.0528 60.5801L37.283 41.0381C37.1849 40.745 37.283 40.4519 37.4793 40.2565C37.6755 40.061 37.9698 40.061 38.2642 40.061L57.8868 46.803C58.1811 46.9007 58.3774 47.1939 58.3774 47.487C58.3774 47.7801 58.1811 48.0732 57.9849 48.171L49.351 51.9816L45.5245 60.5801C45.3283 60.8732 45.034 61.0687 44.7396 61.0687ZM39.2453 42.0152L44.8377 58.3328L48.0755 51.2C48.1736 51.0045 48.2717 50.9068 48.4679 50.8091L55.6302 47.5847L39.2453 42.0152Z" fill="#655E62"/>
<path d="M35.8113 52.2748H24.0377C23.6453 52.2748 23.2528 51.9817 23.2528 51.4931C23.2528 51.1023 23.5472 50.7114 24.0377 50.7114H35.8113C36.2038 50.7114 36.5962 51.0046 36.5962 51.4931C36.5962 51.9817 36.2038 52.2748 35.8113 52.2748Z" fill="#655E62"/>
<path d="M20.1132 52.2748H13.4415C13.0491 52.2748 12.6566 51.9817 12.6566 51.4931C12.6566 51.1023 12.9509 50.7114 13.4415 50.7114H20.1132C20.5057 50.7114 20.8981 51.0046 20.8981 51.4931C20.8981 51.9817 20.5057 52.2748 20.1132 52.2748Z" fill="#655E62"/>
<path d="M37.8717 58.1375H31.2C30.8076 58.1375 30.4151 57.8443 30.4151 57.3558C30.4151 56.9649 30.7094 56.5741 31.2 56.5741H37.8717C38.2642 56.5741 38.6566 56.8672 38.6566 57.3558C38.5585 57.8443 38.2642 58.1375 37.8717 58.1375Z" fill="#655E62"/>
<path d="M27.1774 58.1375H13.4415C13.0491 58.1375 12.6566 57.8443 12.6566 57.3558C12.6566 56.9649 12.9509 56.5741 13.4415 56.5741H27.1774C27.5698 56.5741 27.9623 56.8672 27.9623 57.3558C27.9623 57.8443 27.6679 58.1375 27.1774 58.1375Z" fill="#655E62"/>
<path d="M37.1849 27.7496H31.4943V22.0825C31.4943 21.5939 31.1019 21.3008 30.7094 21.3008H25.8038C25.3132 21.3008 25.0189 21.6916 25.0189 22.0825V27.7496H19.3283C18.8377 27.7496 18.5434 28.1405 18.5434 28.5313V33.4168C18.5434 33.9054 18.9358 34.1985 19.3283 34.1985H25.0189V39.8657C25.0189 40.3542 25.4113 40.6473 25.8038 40.6473H30.7094C31.2 40.6473 31.4943 40.2565 31.4943 39.8657V34.1985H37.1849C37.6755 34.1985 37.9698 33.8077 37.9698 33.4168V28.5313C38.0679 28.1405 37.6755 27.7496 37.1849 27.7496Z" fill="#DD8ABC"/>
<path d="M35.6151 27.7496H31.4943V22.0825C31.4943 21.5939 31.1019 21.3008 30.7094 21.3008H25.8038C25.3132 21.3008 25.0189 21.6916 25.0189 22.0825V27.7496H19.3283C18.8377 27.7496 18.5434 28.1405 18.5434 28.5313V33.4168C18.5434 33.9054 18.9358 34.1985 19.3283 34.1985H25.0189V38.3023H28.2566C28.7472 38.3023 29.0415 37.9115 29.0415 37.5206V33.4168C29.0415 32.5374 29.7283 31.7557 30.7094 31.7557H34.8302C35.3208 31.7557 35.6151 31.3649 35.6151 30.9741V27.7496Z" fill="white"/>
<path d="M30.7094 41.5267H25.8038C24.9208 41.5267 24.234 40.8428 24.234 39.9634V34.9802H19.2302C18.3472 34.9802 17.6604 34.2962 17.6604 33.4168V28.5313C17.6604 27.6519 18.3472 26.968 19.2302 26.968H24.234V21.9847C24.234 21.1054 24.9208 20.4214 25.8038 20.4214H30.7094C31.5925 20.4214 32.2792 21.1054 32.2792 21.9847V26.968H37.283C38.166 26.968 38.8528 27.6519 38.8528 28.5313V33.4168C38.8528 34.2962 38.166 34.9802 37.283 34.9802H32.2792V39.9634C32.1811 40.8428 31.4943 41.5267 30.7094 41.5267ZM19.2302 28.5313C19.1321 28.5313 19.1321 28.5313 19.2302 28.5313L19.1321 33.5145C19.1321 33.5145 19.1321 33.6122 19.2302 33.6122H24.9208C25.3132 33.6122 25.7057 33.9054 25.7057 34.3939V40.0611C25.7057 40.0611 25.7057 40.1588 25.8038 40.1588H30.7094C30.7094 40.1588 30.8075 40.1588 30.8075 40.0611V34.3939C30.8075 34.0031 31.1019 33.6122 31.5925 33.6122H37.283C37.283 33.6122 37.3811 33.6122 37.3811 33.5145V28.629C37.3811 28.629 37.3811 28.5313 37.283 28.5313H31.5925C31.2 28.5313 30.8075 28.2382 30.8075 27.7496V22.0825C30.8075 22.0825 30.8075 21.9847 30.7094 21.9847H25.8038C25.8038 21.9847 25.7057 21.9847 25.7057 22.0825V27.7496C25.7057 28.1405 25.4113 28.5313 24.9208 28.5313H19.2302Z" fill="#655E62"/>
</svg>
