<svg width="51" height="49" viewBox="0 0 51 49" fill="none" xmlns="http://www.w3.org/2000/svg">
<g clip-path="url(#clip0_28_64)">
<path d="M25.9496 0.92334C26.602 1.20673 26.8134 1.70813 26.8056 2.38519C26.7834 4.28816 26.7977 6.18985 26.7977 8.09282C26.7977 8.17233 26.7977 8.25311 26.7977 8.33262C26.7625 9.06739 26.285 9.56622 25.6339 9.55083C24.9828 9.53544 24.5314 9.04943 24.5236 8.33389C24.5079 6.95924 24.5236 5.58331 24.5236 4.20866C24.5236 3.60083 24.5458 2.99302 24.5236 2.38648C24.491 1.70684 24.7297 1.20673 25.3769 0.92334H25.9496Z" fill="white"/>
<path d="M50.6587 25.7852C50.3703 26.4263 49.8602 26.6315 49.1713 26.6238C47.1698 26.602 45.1697 26.6238 43.1695 26.6123C42.221 26.6058 41.6534 25.8762 41.9666 25.1004C42.0414 24.8857 42.1846 24.7003 42.3749 24.5717C42.5652 24.4431 42.7926 24.378 43.0234 24.3861C45.1866 24.3746 47.3512 24.3772 49.5144 24.3861C50.0911 24.3861 50.4277 24.7439 50.66 25.212L50.6587 25.7852Z" fill="white"/>
<path d="M38.6669 40.3023H12.6701C12.6622 40.1215 12.6479 39.9536 12.6479 39.7894C12.6479 35.1987 12.6479 30.608 12.6479 26.0172C12.6401 22.8589 13.3942 19.9326 15.3878 17.4C17.4871 14.7302 20.308 13.2735 23.6768 12.8414C26.5981 12.4669 29.432 12.8106 32.0584 14.1955C35.7325 16.1331 37.751 19.2414 38.4438 23.2179C38.5954 24.1508 38.6687 25.0944 38.663 26.039C38.6838 30.6298 38.6721 35.2205 38.6721 39.8099L38.6669 40.3023ZM35.4651 26.988C35.3516 24.8503 34.8297 22.8243 33.7611 20.9533C32.7564 19.1953 31.4204 17.7745 29.4489 17.0423C28.7353 16.7768 28.1103 17.0179 27.8663 17.6257C27.6223 18.2335 27.9107 18.8414 28.6191 19.1081C29.5315 19.4599 30.331 20.0463 30.9337 20.8059C32.1667 22.2985 32.8047 24.0373 33.0735 25.9185C33.1583 26.5173 33.1479 27.129 33.2196 27.7317C33.2451 28.0138 33.3792 28.2758 33.5945 28.4641C33.8098 28.6523 34.0901 28.7527 34.3782 28.7447C34.968 28.7217 35.422 28.278 35.4625 27.6573C35.4781 27.4355 35.4651 27.2111 35.4651 26.988Z" fill="white"/>
<path d="M46.2539 48.9247H5.05957C5.02719 48.1029 5.18978 47.2851 5.53449 46.5357C6.65003 44.0788 8.57452 42.6118 11.3184 42.5939C20.8873 42.5323 30.4562 42.5477 40.0225 42.5823C43.2843 42.5951 46.0438 45.2752 46.25 48.4656C46.2617 48.6054 46.2539 48.7464 46.2539 48.9247Z" fill="white"/>
<path d="M5.04651 24.3784C6.10465 24.3784 7.16279 24.3592 8.22093 24.3784C9.13424 24.4002 9.68223 25.2068 9.31821 25.9595C9.22687 26.1584 9.07698 26.3257 8.8879 26.44C8.69882 26.5543 8.47922 26.6103 8.25746 26.6007C6.10987 26.6007 3.96097 26.6148 1.81338 26.6007C1.66184 26.6059 1.5108 26.5808 1.36945 26.5269C1.2281 26.4729 1.09938 26.3913 0.991131 26.287C0.882879 26.1826 0.797355 26.0577 0.739756 25.9199C0.682158 25.782 0.65369 25.6341 0.656084 25.4851C0.656084 24.8708 1.13231 24.3951 1.83034 24.3797C2.90153 24.3617 3.97533 24.3797 5.04651 24.3784Z" fill="white"/>
<path d="M39.2162 14.0235C38.5703 14.0132 38.2141 13.8196 38.0067 13.4105C37.8923 13.2132 37.8479 12.9841 37.8802 12.7593C37.9125 12.5344 38.0199 12.3264 38.1854 12.168C38.7073 11.6217 39.2605 11.0998 39.8007 10.5676C40.6736 9.70847 41.5451 8.84674 42.4232 7.99143C42.9895 7.44003 43.6692 7.39387 44.1468 7.8632C44.6243 8.33253 44.606 8.99293 44.0346 9.55844C42.6698 10.9087 41.3051 12.2513 39.922 13.5875C39.6911 13.8068 39.361 13.9324 39.2162 14.0235Z" fill="white"/>
<path d="M7.07928 8.9957C7.13017 8.41865 7.34023 8.09037 7.74079 7.90956C7.9373 7.80807 8.16128 7.76981 8.38111 7.80018C8.60094 7.83055 8.80551 7.92802 8.96593 8.07883C9.33908 8.41095 9.68745 8.77129 10.0436 9.12136C11.1253 10.1831 12.2134 11.241 13.2846 12.3118C13.8065 12.8401 13.7934 13.5749 13.2742 14.0045C13.0726 14.1856 12.8081 14.2838 12.535 14.2791C12.262 14.2743 12.0012 14.1668 11.8063 13.9788C10.3172 12.5477 8.84677 11.1 7.39503 9.63558C7.20454 9.44836 7.14583 9.13804 7.07928 8.9957Z" fill="white"/>
</g>
<defs>
<clipPath id="clip0_28_64">
<rect width="50" height="48" fill="white" transform="translate(0.658691 0.92334)"/>
</clipPath>
</defs>
</svg>
