<svg width="64" height="63" viewBox="0 0 64 63" fill="none" xmlns="http://www.w3.org/2000/svg">
<g clip-path="url(#clip0_5_494)">
<path d="M58.7169 0.697144H4.85435C2.73832 0.697144 1.00702 2.40096 1.00702 4.4834V46.1323H62.5643V4.4834C62.5643 2.40096 60.833 0.697144 58.7169 0.697144Z" fill="#DD8ABC"/>
<path d="M55.7353 0.697144H4.75816C2.64213 0.697144 0.910828 2.40096 0.910828 4.4834V38.5597H43.2314C50.1566 38.5597 55.7353 33.0697 55.7353 26.2544V0.697144Z" fill="white"/>
<path d="M43.3276 55.5979H20.2437V61.2773H43.3276V55.5979Z" fill="#DD8ABC"/>
<path d="M35.633 58.4376H20.2437V55.5979H37.5566V56.5445C37.5566 57.6803 36.691 58.4376 35.633 58.4376Z" fill="white"/>
<path d="M58.7169 55.5979H4.85435C2.73832 55.5979 1.00702 53.894 1.00702 51.8116V46.1322H62.5643V51.8116C62.5643 53.9887 60.833 55.5979 58.7169 55.5979Z" fill="#DD8ABC"/>
<path d="M55.7353 51.8116H0.910828V46.1322H57.6589V49.9185C57.6589 51.0543 56.8895 51.8116 55.7353 51.8116Z" fill="white"/>
<path d="M62.5643 46.8895H1.00701C0.622282 46.8895 0.237549 46.6055 0.237549 46.1323V4.4834C0.237549 2.02233 2.2574 0.0345459 4.85434 0.0345459H58.7169C61.2177 0.0345459 63.3337 2.02233 63.3337 4.57806V46.2269C63.2375 46.6055 62.949 46.8895 62.5643 46.8895ZM1.6803 45.4697H61.7948V4.57806C61.7948 2.87424 60.3521 1.45439 58.6208 1.45439H4.75816C3.12304 1.45439 1.6803 2.87424 1.6803 4.57806V45.4697Z" fill="#655E62"/>
<path d="M43.3276 62.0346H20.2436C19.8589 62.0346 19.4742 61.7506 19.4742 61.2773V55.5979C19.4742 55.2193 19.7627 54.8407 20.2436 54.8407H43.3276C43.7124 54.8407 44.0971 55.1247 44.0971 55.5979V61.2773C44.0009 61.7506 43.7124 62.0346 43.3276 62.0346ZM20.9169 60.6147H42.5582V56.3552H20.9169V60.6147Z" fill="#655E62"/>
<path d="M58.7169 56.3551H4.85434C2.35358 56.3551 0.237549 54.3673 0.237549 51.8116V46.1322C0.237549 45.7536 0.526098 45.4696 1.00701 45.4696H62.5643C62.949 45.4696 63.3337 45.7536 63.3337 46.2269V51.9062C63.2375 54.3673 61.2177 56.3551 58.7169 56.3551ZM1.6803 46.8895V51.9062C1.6803 53.5154 3.12305 54.9353 4.85434 54.9353H58.7169C60.4482 54.9353 61.891 53.5154 61.891 51.8116V46.7948H1.6803V46.8895Z" fill="#655E62"/>
<path d="M51.0223 62.0345H12.549C12.1643 62.0345 11.7795 61.7505 11.7795 61.2773C11.7795 60.8986 12.0681 60.52 12.549 60.52H51.0223C51.407 60.52 51.7918 60.804 51.7918 61.2773C51.6956 61.7505 51.407 62.0345 51.0223 62.0345Z" fill="#655E62"/>
<path d="M52.1765 43.1032H43.7124C43.3276 43.1032 42.9429 42.8193 42.9429 42.346C42.9429 41.9674 43.2315 41.5887 43.7124 41.5887H52.1765C52.5612 41.5887 52.946 41.8727 52.946 42.346C52.946 42.7246 52.5612 43.1032 52.1765 43.1032Z" fill="#655E62"/>
<path d="M58.1398 43.1032H56.0238C55.6391 43.1032 55.2543 42.8193 55.2543 42.346C55.2543 41.9674 55.5429 41.5887 56.0238 41.5887H58.1398C58.5246 41.5887 58.9093 41.8727 58.9093 42.346C58.9093 42.7246 58.6207 43.1032 58.1398 43.1032Z" fill="#655E62"/>
<path d="M44.9628 5.24065H33.7093C33.3246 5.24065 32.9398 4.95668 32.9398 4.4834C32.9398 4.10477 33.2284 3.8208 33.7093 3.8208H45.0589C45.4437 3.8208 45.8284 4.10477 45.8284 4.57805C45.7322 4.95668 45.4437 5.24065 44.9628 5.24065Z" fill="#655E62"/>
<path d="M51.0223 5.2407H48.9062C48.5215 5.2407 48.1368 4.95673 48.1368 4.48345C48.1368 4.10482 48.4253 3.7262 48.9062 3.7262H51.0223C51.407 3.7262 51.7917 4.01017 51.7917 4.48345C51.6956 4.95673 51.407 5.2407 51.0223 5.2407Z" fill="#655E62"/>
<path d="M24.9566 9.40548C24.9566 6.7551 22.6482 4.578 19.7627 4.578C17.8391 4.578 16.204 5.52457 15.3383 6.94442C14.4727 5.52457 12.7414 4.578 10.9139 4.578C8.0284 4.578 5.72 6.7551 5.72 9.40548C5.72 15.0849 15.3383 20.6696 15.3383 20.6696C15.3383 20.6696 24.9566 15.0849 24.9566 9.40548Z" fill="white"/>
<path d="M19.8589 4.578C19.2818 4.578 18.8009 4.67266 18.2238 4.86197C20.2437 5.52457 21.7826 7.32304 21.7826 9.50014C21.7826 13.7597 16.4925 17.8299 13.7994 19.723C14.7612 20.3856 15.4345 20.7643 15.4345 20.7643C15.4345 20.7643 25.0528 15.2742 25.0528 9.50014C24.9566 6.66045 22.6482 4.578 19.8589 4.578Z" fill="#DD8ABC"/>
<path d="M15.3383 21.3323C15.2421 21.3323 15.0498 21.3323 14.9536 21.2376C14.5689 21.0483 5.04672 15.4635 5.04672 9.40553C5.04672 6.28187 7.64367 3.8208 10.9139 3.8208C12.6452 3.8208 14.2803 4.57805 15.3383 5.71393C16.4925 4.4834 18.0315 3.8208 19.7628 3.8208C23.033 3.8208 25.6299 6.28187 25.6299 9.40553C25.6299 15.4635 16.1078 21.0483 15.6269 21.2376C15.6269 21.3323 15.5307 21.3323 15.3383 21.3323ZM10.9139 5.24065C8.50932 5.24065 6.48947 7.13378 6.48947 9.40553C6.48947 14.0437 13.7032 18.7765 15.4345 19.8177C17.1658 18.7765 24.2834 14.0437 24.2834 9.40553C24.2834 7.13378 22.2635 5.24065 19.8589 5.24065C18.32 5.24065 16.7811 5.9979 16.0116 7.32309C15.7231 7.70172 15.0498 7.70172 14.7612 7.32309C13.9918 5.9979 12.549 5.24065 10.9139 5.24065Z" fill="#655E62"/>
<path d="M35.4406 42.1567C35.0559 42.1567 34.7673 41.8727 34.7673 41.5888L30.5353 18.3979L27.6498 29.946C27.5536 30.23 27.265 30.514 26.9765 30.514H23.5139L20.1475 40.0743C20.0513 40.3582 19.7627 40.5475 19.4742 40.5475C19.1856 40.5475 18.8971 40.3582 18.8009 40.0743L15.0498 26.917L11.6833 35.7201C11.5872 36.004 11.2986 36.1933 11.0101 36.1933C10.7215 36.1933 10.433 36.004 10.3368 35.8147L7.93221 30.4193H1.00701C0.622282 30.4193 0.237549 30.1353 0.237549 29.662C0.237549 29.2834 0.526098 28.9048 1.00701 28.9048H8.41312C8.70167 28.9048 8.99022 29.0941 9.0864 29.2834L11.0101 33.3536L14.4727 24.0773C14.5688 23.7933 14.8574 23.604 15.1459 23.604C15.4345 23.604 15.723 23.7933 15.8192 24.0773L19.4742 37.3292L22.2635 29.4727C22.3597 29.1888 22.6482 28.9994 22.9368 28.9994H26.3032L29.862 14.801C29.9582 14.517 30.2467 14.233 30.6314 14.233C31.0162 14.233 31.3047 14.517 31.3047 14.801L35.633 38.6544L38.807 29.4727C38.9032 29.1888 39.1917 28.9994 39.4803 28.9994H45.8284C46.1169 28.9994 46.4055 29.1888 46.5017 29.4727L47.8482 32.8804L51.1185 23.1307C51.2146 22.8468 51.5032 22.6575 51.7917 22.6575C52.0803 22.6575 52.3688 22.8468 52.465 23.0361L55.1582 28.9994H62.4681C62.8528 28.9994 63.2375 29.2834 63.2375 29.7567C63.2375 30.1353 62.949 30.514 62.4681 30.514H54.6772C54.3887 30.514 54.1001 30.3246 54.004 30.1353L51.8879 25.4025L48.5215 35.3414C48.4253 35.6254 48.1368 35.8147 47.8482 35.8147C47.5597 35.8147 47.2711 35.6254 47.175 35.3414L45.3475 30.514H40.0574L36.1139 41.6834C36.0177 41.9674 35.7291 42.1567 35.4406 42.1567Z" fill="#655E62"/>
<path d="M24.9566 52.7582C26.019 52.7582 26.8803 51.9106 26.8803 50.8651C26.8803 49.8195 26.019 48.9719 24.9566 48.9719C23.8942 48.9719 23.033 49.8195 23.033 50.8651C23.033 51.9106 23.8942 52.7582 24.9566 52.7582Z" fill="white"/>
<path d="M24.9566 53.5155C23.5139 53.5155 22.2635 52.3796 22.2635 50.8651C22.2635 49.3506 23.4177 48.2147 24.9566 48.2147C26.3994 48.2147 27.6497 49.3506 27.6497 50.8651C27.6497 52.3796 26.4956 53.5155 24.9566 53.5155ZM24.9566 49.7292C24.2833 49.7292 23.7062 50.2972 23.7062 50.9598C23.7062 51.6224 24.2833 52.1903 24.9566 52.1903C25.6299 52.1903 26.207 51.6224 26.207 50.9598C26.207 50.2972 25.6299 49.7292 24.9566 49.7292Z" fill="#655E62"/>
<path d="M16.3001 52.7582C17.3625 52.7582 18.2238 51.9106 18.2238 50.8651C18.2238 49.8195 17.3625 48.9719 16.3001 48.9719C15.2377 48.9719 14.3765 49.8195 14.3765 50.8651C14.3765 51.9106 15.2377 52.7582 16.3001 52.7582Z" fill="white"/>
<path d="M16.3001 53.5155C14.8574 53.5155 13.7032 52.3796 13.7032 50.8651C13.7032 49.3506 14.8574 48.2147 16.3001 48.2147C17.7429 48.2147 18.9933 49.3506 18.9933 50.8651C18.9933 52.3796 17.8391 53.5155 16.3001 53.5155ZM16.3001 49.7292C15.6269 49.7292 15.1459 50.2972 15.1459 50.9598C15.1459 51.6224 15.723 52.1903 16.3001 52.1903C16.9734 52.1903 17.5505 51.6224 17.5505 50.9598C17.5505 50.2972 16.9734 49.7292 16.3001 49.7292Z" fill="#655E62"/>
<path d="M7.64367 52.7582C8.70608 52.7582 9.56733 51.9106 9.56733 50.8651C9.56733 49.8195 8.70608 48.9719 7.64367 48.9719C6.58125 48.9719 5.72 49.8195 5.72 50.8651C5.72 51.9106 6.58125 52.7582 7.64367 52.7582Z" fill="white"/>
<path d="M7.64366 53.5154C6.20091 53.5154 4.95053 52.3796 4.95053 50.8651C4.95053 49.3505 6.20091 48.3093 7.64366 48.3093C9.08641 48.3093 10.3368 49.4452 10.3368 50.9597C10.3368 52.4742 9.18259 53.5154 7.64366 53.5154ZM7.64366 49.7292C6.97038 49.7292 6.39328 50.2971 6.39328 50.9597C6.39328 51.6223 6.97038 52.1902 7.64366 52.1902C8.31694 52.0956 8.89404 51.5276 8.89404 50.8651C8.89404 50.2971 8.31694 49.7292 7.64366 49.7292Z" fill="#655E62"/>
</g>
<defs>
<clipPath id="clip0_5_494">
<rect width="63" height="62" fill="white" transform="translate(0.237549 0.0345459)"/>
</clipPath>
</defs>
</svg>
