<svg width="105" height="106" viewBox="0 0 105 106" fill="none" xmlns="http://www.w3.org/2000/svg">
<g clip-path="url(#clip0_31_84)">
<path d="M37.3704 63.0995C34.3361 59.5995 32.5743 55.3062 31.5842 50.6366C31.5055 50.2691 31.0017 49.8579 30.6144 49.712C27.0909 48.4141 25.3727 44.3454 26.9831 41.0262C28.0227 38.8854 29.3768 38.1504 31.8754 38.4654C31.7647 37.1149 31.6482 35.7908 31.5492 34.4637C31.4298 32.8654 31.2755 31.2554 31.2289 29.6658C31.1124 25.4716 32.9179 22.3741 36.6395 20.4316C38.9953 19.2037 41.5463 18.6291 44.1642 18.352C48.8614 17.8591 53.541 17.9145 58.1421 19.1366C59.3354 19.4553 60.4906 19.9032 61.5871 20.4724C65.3727 22.4266 67.1404 25.5999 66.9423 29.832C66.8113 32.667 66.5521 35.4933 66.3425 38.4187C67.6645 38.2524 68.9458 38.3108 69.968 39.3112C70.9454 40.2574 71.5763 41.5057 71.7589 42.8549C71.9409 44.2758 71.6369 45.7165 70.8965 46.9422C70.1562 48.1679 69.0231 49.1062 67.682 49.6041C66.9132 49.8695 66.6278 50.2429 66.4648 51.0129C65.4688 55.6941 64.7175 57.2516 60.6727 63.3912C62.5148 64.6957 64.0291 66.4111 65.0961 68.402C65.2067 68.6179 65.6115 68.7491 65.8998 68.7899C72.8159 69.77 77.0384 74.6233 77.0472 81.6233C77.0472 83.592 77.0472 85.5608 77.0472 87.5295C77.0472 88.9208 76.4123 89.7199 75.332 89.7404C74.2516 89.7608 73.5614 88.9383 73.5556 87.4799C73.5556 85.2195 73.5876 82.9591 73.5381 80.7016C73.4918 78.9786 72.933 77.3086 71.9333 75.9056C70.9336 74.5027 69.5384 73.4305 67.9266 72.8266C67.7566 72.7627 67.5749 72.7359 67.3937 72.7478C69.9883 74.3258 71.2813 76.6912 71.7123 79.602C71.7385 79.7829 71.7676 79.9637 71.7822 80.1445C71.9074 81.7429 71.3191 82.6791 70.1543 82.7462C68.9895 82.8133 68.4391 82.0462 68.2935 80.442C68.1654 79.0333 67.7606 77.7208 66.7472 76.6766C65.5562 75.4487 64.106 75.4399 62.912 76.6591C61.8346 77.7558 61.4327 79.1412 61.3337 80.6316C61.2405 82.017 60.5824 82.7899 59.5108 82.7462C58.4391 82.7024 57.7635 81.8712 57.8509 80.5004C58.1013 77.1491 59.336 74.3754 62.5102 72.7566C62.6894 72.6367 62.8606 72.5051 63.0227 72.3629H57.9383C57.9383 72.3629 57.8509 72.4154 57.8596 72.462C58.1945 74.4658 57.0763 75.6004 55.5562 76.6183C53.8643 77.7529 52.283 79.0508 50.6523 80.2699C49.3069 81.2733 48.8643 81.2733 47.5509 80.2874C45.9202 79.0624 44.3186 77.7995 42.6529 76.627C41.1648 75.5799 39.7699 74.5445 40.4455 72.3279H35.1165C35.1165 74.6612 35.0961 76.9712 35.1514 79.2812C35.1514 79.5058 35.6203 79.7566 35.9115 79.9229C36.9853 80.5339 37.8092 81.5051 38.2379 82.6651C38.6666 83.8252 38.6725 85.0996 38.2547 86.2636C37.8369 87.4277 37.0222 88.4065 35.9542 89.0277C34.8861 89.6488 33.6335 89.8723 32.417 89.6587C29.7962 89.1191 27.9819 86.8674 28.1334 84.2483C28.1562 83.3486 28.4219 82.4718 28.9024 81.7112C29.3828 80.9507 30.06 80.3347 30.862 79.9287C31.424 79.637 31.6569 79.322 31.6249 78.6862C31.5725 77.6683 31.6249 76.6445 31.6249 75.6237V72.4679C29.6769 72.8603 27.9214 73.9083 26.6501 75.4379C25.3788 76.9675 24.6681 78.8867 24.636 80.8766C24.6127 83.0991 24.636 85.3216 24.636 87.547C24.636 88.9354 24.0012 89.7374 22.9179 89.7549C21.8346 89.7724 21.1386 88.9645 21.1503 87.6024C21.1736 84.8725 20.9639 82.1045 21.3192 79.4154C22.0763 73.687 26.025 69.8312 31.721 68.9154C32.5742 68.7783 33.046 68.4224 33.5585 67.7079C34.6738 66.1299 36.0192 64.7008 37.3704 63.0995ZM32.7519 46.1829C33.3343 46.5387 34.0303 46.7837 34.4176 47.2824C34.7612 47.7229 34.7758 48.4491 34.8806 49.0324C35.5999 53.2237 36.9744 57.1524 39.7379 60.4454C42.9091 64.2224 46.8812 66.0454 51.8404 64.8204C55.8561 63.8258 58.445 61.0287 60.4135 57.552C62.0879 54.6004 62.9324 51.3745 63.477 48.0466C63.6779 46.8129 64.272 46.3783 65.5154 46.4133C66.9336 46.4541 67.8247 45.7891 68.212 44.3891C68.4624 43.4762 68.3925 42.4145 67.5888 42.0558C67.184 41.8779 66.3104 42.782 65.6494 43.1991C65.6213 43.2244 65.6002 43.2566 65.5882 43.2924C65.1805 44.1266 64.5457 44.6137 63.5847 44.4591C62.5626 44.287 62.2248 43.5054 62.0268 42.5954C61.3133 39.2879 60.5504 35.992 59.8777 32.6787C59.7292 31.9554 59.4118 31.6112 58.742 31.4362C52.2772 29.7358 45.8212 29.6862 39.3622 31.4916C39.0994 31.5373 38.8586 31.6673 38.6758 31.8619C38.4931 32.0565 38.3783 32.3053 38.3489 32.5708C37.65 35.957 36.8928 39.3258 36.1503 42.7033C35.961 43.5783 35.6086 44.3133 34.6272 44.4533C33.7303 44.5962 33.1334 44.1616 32.6587 43.4033C32.3392 42.9286 31.9459 42.5082 31.4939 42.1579C30.9522 41.7116 30.5125 41.8895 30.1951 42.502C29.7088 43.4441 29.8544 44.3454 30.3465 45.2116C30.8387 46.0779 31.5871 46.4891 32.7519 46.1712V46.1829ZM34.9651 31.3983C35.0408 29.2195 36.6366 28.537 38.2906 28.1608C40.6844 27.5728 43.1174 27.1585 45.5708 26.9212C50.2592 26.5537 54.9476 26.6879 59.5137 28.0266C61.2609 28.5399 63.0664 29.0387 63.1916 31.4187C64.2341 27.8429 62.8159 24.8095 59.4729 23.2841C56.7734 22.0504 53.8818 21.7383 50.9668 21.6333C47.0297 21.4933 43.1043 21.5779 39.3564 23.0187C35.5067 24.4858 34.0652 27.1954 34.9651 31.3866V31.3983ZM49.0914 77.0849C50.7513 75.8366 52.3792 74.6233 53.9895 73.3837C54.0819 73.3052 54.1578 73.2091 54.2128 73.1009C54.2678 72.9927 54.3008 72.8747 54.3098 72.7537C54.336 71.132 54.3098 69.5045 54.3098 67.7487C50.9312 69.0232 47.2051 69.0232 43.8264 67.7487C43.8264 69.4987 43.809 71.1204 43.8439 72.7449C43.8823 73.0215 44.0277 73.2718 44.2487 73.442C45.8474 74.6495 47.449 75.8366 49.0914 77.0733V77.0849ZM35.1136 84.5341C35.117 84.1862 35.0168 83.8451 34.8257 83.5545C34.6347 83.2638 34.3615 83.0368 34.041 82.9025C33.7205 82.7682 33.3673 82.7326 33.0265 82.8002C32.6858 82.8679 32.3728 83.0358 32.1278 83.2825C31.8828 83.5292 31.7167 83.8434 31.6509 84.1851C31.585 84.5267 31.6223 84.8803 31.7581 85.2006C31.8938 85.5209 32.1219 85.7934 32.413 85.9833C32.7041 86.1732 33.0452 86.2718 33.3925 86.2666C33.8478 86.256 34.281 86.0677 34.5997 85.7419C34.9185 85.4161 35.0976 84.9786 35.099 84.5225L35.1136 84.5341ZM40.3174 66.0133L40.0437 65.8266L37.0705 68.4866L37.2248 68.717H40.3174V66.0133ZM57.8946 68.6674H61.0163L61.1299 68.4341L57.8946 65.6283V68.6674Z" fill="#FFBAEC"/>
<path d="M0 56.5633C0.168899 32.7429 17.3704 12.2562 40.7921 8.22244C48.7158 6.84162 56.8574 7.44276 64.4933 9.97244C66.1619 10.5149 66.823 11.3491 66.4735 12.4429C66.1008 13.6095 65.1252 13.8866 63.3634 13.3179C37.6558 4.80994 10.3494 20.4491 4.60396 46.9616C-0.80664 71.9341 15.795 96.8074 40.8649 101.299C65.2563 105.674 88.6022 89.9795 93.5469 65.7158C96.1415 52.9874 93.6284 41.1924 86.3192 30.4387C86.1124 30.147 85.8882 29.8554 85.6989 29.5404C85.1165 28.5808 85.2912 27.6008 86.1357 27.0437C86.3231 26.9108 86.5357 26.8178 86.7605 26.7705C86.9852 26.7232 87.2173 26.7227 87.4422 26.7689C87.6672 26.8151 87.8803 26.9071 88.0683 27.0391C88.2563 27.1712 88.4152 27.3405 88.5352 27.5366C89.5544 28.9949 90.5737 30.4737 91.4473 32.0195C108.285 61.3554 91.2027 98.4291 57.9907 104.645C31.4386 109.67 5.71054 91.8783 1.02213 65.2316C0.527085 62.3704 0.334886 59.4537 0 56.5633Z" fill="#FFBAEC"/>
<path d="M73.5469 25.0137C72.382 25.0137 71.322 25.0312 70.2737 25.0137C68.9808 24.9875 68.3139 24.3429 68.311 23.0537C68.2993 16.2054 68.2993 9.35608 68.311 2.5058C68.311 1.20497 68.9691 0.528307 70.2504 0.525391C81.1997 0.525391 92.1481 0.525391 103.095 0.525391C104.316 0.525391 104.985 1.20789 104.988 2.43872C105.004 9.32594 105.004 16.2122 104.988 23.0975C104.988 24.3954 104.278 25.0108 102.871 25.0137C96.6889 25.0137 90.5038 25.0341 84.3215 24.9962C83.9695 24.9628 83.6156 25.0347 83.3046 25.2029C82.9935 25.3712 82.7393 25.6281 82.5742 25.9412C80.7629 28.7558 78.8788 31.5237 77.0413 34.3179C76.4997 35.1404 75.8532 35.75 74.7961 35.4204C73.7391 35.0908 73.5323 34.2537 73.541 33.2533C73.5643 30.5583 73.5469 27.8662 73.5469 25.0137ZM101.476 4.08664H71.8549V21.5079H73.7361C76.8142 21.5079 77.0413 21.7296 77.0413 24.76V27.6241C78.2794 26.1044 79.4175 24.5056 80.4484 22.8379C81.0541 21.8608 81.8229 21.4816 82.9673 21.4904C88.7565 21.5283 94.5428 21.5079 100.332 21.5079H101.476V4.08664Z" fill="#FFBAEC"/>
<path d="M86.6511 14.5137C89.7088 14.5137 92.7664 14.5137 95.8241 14.5137C97.1986 14.5137 97.9994 15.17 97.9994 16.2637C97.9994 17.3575 97.1957 18.0137 95.8212 18.0137C89.7059 18.0137 83.5905 18.0137 77.4752 18.0137C76.0978 18.0137 75.2999 17.3575 75.2999 16.2637C75.2999 15.17 76.0978 14.5137 77.4752 14.5137C80.5358 14.5079 83.5935 14.5137 86.6511 14.5137Z" fill="#FFBAEC"/>
<path d="M83.6081 11.0137C81.5376 11.0137 79.4642 11.0137 77.3908 11.0137C76.0978 11.0137 75.3203 10.3487 75.3029 9.28992C75.2854 8.23117 76.0658 7.52534 77.3413 7.52242C81.558 7.51076 85.7756 7.51076 89.9942 7.52242C91.2813 7.52242 92.0734 8.19617 92.0909 9.24325C92.1084 10.2903 91.2871 11.0108 89.936 11.0166C87.8276 11.0195 85.7193 11.0137 83.6081 11.0137Z" fill="#FFBAEC"/>
</g>
<defs>
<clipPath id="clip0_31_84">
<rect width="105" height="105" fill="white" transform="translate(0 0.513672)"/>
</clipPath>
</defs>
</svg>
