<svg width="67" height="67" viewBox="0 0 67 67" fill="none" xmlns="http://www.w3.org/2000/svg">
<g clip-path="url(#clip0_4_66)">
<path d="M47.64 65.7114H19.64C9.73995 65.7114 1.63995 57.6114 1.63995 47.7114V19.7114C1.63995 9.81143 9.73995 1.71143 19.64 1.71143H47.64C57.54 1.71143 65.64 9.81143 65.64 19.7114V47.7114C65.64 57.6114 57.54 65.7114 47.64 65.7114Z" fill="white"/>
<path d="M55.14 3.3114C57.94 8.1114 59.64 13.7114 59.64 19.6114C59.64 37.3114 45.34 51.6114 27.64 51.6114H24.64C15.24 51.6114 6.93995 47.2114 1.63995 40.3114V47.6114C1.63995 57.5114 9.73995 65.6114 19.64 65.6114H47.64C57.54 65.6114 65.64 57.5114 65.64 47.6114V19.6114C65.64 12.4114 61.24 6.2114 55.14 3.3114Z" fill="#DD8ABC"/>
<path d="M47.64 66.4114H19.64C9.23997 66.4114 0.839966 58.0114 0.839966 47.7114V19.7114C0.839966 9.31138 9.23997 0.911377 19.64 0.911377H47.64C57.94 0.911377 66.44 9.31138 66.44 19.7114V47.7114C66.34 58.0114 57.94 66.4114 47.64 66.4114ZM19.64 2.41138C10.04 2.41138 2.33997 10.1114 2.33997 19.7114V47.7114C2.33997 57.2114 10.04 64.9114 19.64 64.9114H47.64C57.14 64.9114 64.84 57.2114 64.84 47.7114V19.7114C64.84 10.2114 57.14 2.41138 47.54 2.41138H19.64Z" fill="#655E62"/>
<path d="M27.14 33.5114L26.34 36.5114C25.84 38.3114 24.64 39.8114 22.94 40.5114L33.54 44.7114L44.14 40.5114C42.44 39.8114 41.24 38.3114 40.74 36.5114L39.94 33.5114H27.14Z" fill="white"/>
<path d="M40.04 42.2114L44.24 40.5114C42.54 39.8114 41.34 38.3114 40.84 36.5114L40.04 33.5114H36.34L37.34 37.5114C37.84 39.3114 38.74 40.9114 40.04 42.2114Z" fill="#DD8ABC"/>
<path d="M33.64 45.5114C33.54 45.5114 33.44 45.5114 33.34 45.4114L22.74 41.2114C22.44 41.1114 22.24 40.8114 22.24 40.5114C22.24 40.2114 22.44 39.9114 22.64 39.8114C24.14 39.1114 25.24 37.9114 25.64 36.3114L26.44 33.3114C26.54 33.0114 26.84 32.7114 27.14 32.7114H40.04C40.34 32.7114 40.64 32.9114 40.74 33.3114L41.54 36.3114C41.94 37.9114 43.04 39.2114 44.54 39.8114C44.84 39.9114 45.04 40.2114 44.94 40.5114C44.94 40.8114 44.74 41.1114 44.44 41.2114L33.84 45.5114C33.74 45.5114 33.74 45.5114 33.64 45.5114ZM24.64 40.4114L33.54 44.0114L42.44 40.4114C41.24 39.5114 40.44 38.2114 40.04 36.7114L39.44 34.3114H27.74L27.14 36.7114C26.74 38.2114 25.84 39.5114 24.64 40.4114Z" fill="#655E62"/>
<path d="M60.54 50.8114C60.44 46.5114 57.34 43.0114 53.04 42.2114L45.54 40.9114C45.04 40.8114 44.54 40.7114 44.14 40.5114L33.54 44.7114L22.94 40.5114C22.54 40.7114 22.04 40.8114 21.54 40.9114L14.04 42.2114C9.83998 42.9114 6.63998 46.5114 6.53998 50.8114C6.53998 52.0114 6.53998 56.2114 6.53998 60.0114C9.83998 63.4114 14.44 65.6114 19.54 65.6114H47.54C52.64 65.6114 57.24 63.5114 60.54 60.0114C60.64 56.2114 60.64 52.0114 60.54 50.8114Z" fill="white"/>
<path d="M60.54 50.8114C60.44 47.1114 58.14 44.0114 54.74 42.7114C55.84 44.1114 56.44 45.9114 56.54 47.8114C56.54 48.6114 56.54 50.7114 56.54 53.2114C56.54 56.0114 55.14 58.6114 52.74 60.0114C50.04 61.6114 46.94 62.5114 43.54 62.5114H15.54C12.44 62.5114 9.43997 61.7114 6.93997 60.3114C10.24 63.5114 14.64 65.5114 19.54 65.5114H47.54C52.64 65.5114 57.24 63.4114 60.54 59.9114C60.64 56.2114 60.64 52.0114 60.54 50.8114Z" fill="#DD8ABC"/>
<path d="M47.64 66.4113H19.64C14.44 66.4113 9.63997 64.3113 6.13997 60.6113C5.93997 60.5113 5.83997 60.3113 5.83997 60.1113C5.83997 56.6113 5.83997 52.1113 5.83997 50.8113C5.93997 46.2113 9.33997 42.3113 13.94 41.5113L21.44 40.2113C21.84 40.1113 22.24 40.0113 22.64 39.8113C22.84 39.7113 23.04 39.7113 23.24 39.8113L33.54 43.9113L43.84 39.8113C44.04 39.7113 44.24 39.7113 44.44 39.8113C44.84 40.0113 45.24 40.1113 45.64 40.2113L53.14 41.5113C57.74 42.3113 61.14 46.2113 61.24 50.8113C61.24 52.1113 61.24 57.2113 61.24 60.1113C61.24 60.3113 61.14 60.5113 61.04 60.6113C57.54 64.3113 52.74 66.4113 47.64 66.4113ZM7.33997 59.8113C10.64 63.1113 14.94 64.9113 19.64 64.9113H47.64C52.24 64.9113 56.64 63.1113 59.94 59.8113C59.94 56.9113 59.94 52.1113 59.94 50.9113C59.84 47.0113 57.04 43.7113 53.14 43.1113L45.64 41.8113C45.24 41.7113 44.74 41.6113 44.34 41.4113L33.84 45.5113C33.64 45.6113 33.44 45.6113 33.24 45.5113L22.94 41.4113C22.54 41.6113 22.04 41.7113 21.64 41.8113L14.14 43.1113C10.24 43.8113 7.33997 47.1113 7.33997 50.9113C7.33997 52.0113 7.33997 56.3113 7.33997 59.8113Z" fill="#655E62"/>
<path d="M33.64 37.3114C26.14 37.3114 20.04 30.0114 20.04 20.9114C20.04 12.6114 25.54 7.01135 33.64 7.01135C41.74 7.01135 47.24 12.6114 47.24 20.9114C47.14 29.9114 41.04 37.3114 33.64 37.3114ZM33.64 8.51135C26.34 8.51135 21.54 13.4114 21.54 20.9114C21.54 29.1114 26.94 35.8114 33.64 35.8114C40.34 35.8114 45.64 29.1114 45.64 20.9114C45.64 13.3114 40.94 8.51135 33.64 8.51135Z" fill="#655E62"/>
<path d="M51.04 66.1114C50.64 66.1114 50.24 65.8114 50.24 65.3114V56.8114C50.24 56.4114 50.54 56.0114 51.04 56.0114C51.44 56.0114 51.84 56.3114 51.84 56.8114V65.3114C51.84 65.7114 51.44 66.1114 51.04 66.1114Z" fill="#655E62"/>
<path d="M16.14 66.1114C15.74 66.1114 15.34 65.8114 15.34 65.3114V56.8114C15.34 56.4114 15.64 56.0114 16.14 56.0114C16.54 56.0114 16.84 56.3114 16.84 56.8114V65.3114C16.84 65.7114 16.54 66.1114 16.14 66.1114Z" fill="#655E62"/>
<path d="M22.94 40.5114L26.54 65.7114H40.64L44.24 40.5114L33.64 44.8114L22.94 40.5114Z" fill="white"/>
<path d="M41.74 41.5114L38.94 61.1114C38.74 62.5114 37.54 63.6114 36.04 63.6114H26.34L26.64 65.6114H40.64L44.24 40.5114L41.74 41.5114Z" fill="#DD8ABC"/>
<path d="M40.64 66.4114H26.64C26.24 66.4114 25.94 66.1114 25.94 65.8114L22.34 40.7114C22.34 40.4114 22.44 40.2114 22.64 40.0114C22.84 39.8114 23.14 39.8114 23.34 39.9114L33.64 44.0114L43.94 39.9114C44.14 39.8114 44.44 39.8114 44.64 40.0114C44.84 40.2114 44.94 40.4114 44.94 40.7114L41.34 65.8114C41.24 66.1114 40.94 66.4114 40.64 66.4114ZM27.24 64.9114H39.94L43.24 41.7114L33.84 45.5114C33.64 45.6114 33.44 45.6114 33.24 45.5114L23.84 41.7114L27.24 64.9114Z" fill="#655E62"/>
<path d="M46.44 20.9114C46.44 29.5114 40.74 36.5114 33.64 36.5114C26.54 36.5114 20.84 29.5114 20.84 20.9114C20.84 12.3114 26.54 7.71143 33.64 7.71143C40.74 7.71143 46.44 12.3114 46.44 20.9114Z" fill="white"/>
<path d="M41.24 9.91138C42.64 12.0114 43.44 14.6114 43.44 17.9114C43.44 26.5114 37.74 33.5114 30.64 33.5114C28.24 33.5114 26.04 32.7114 24.14 31.3114C26.44 34.5114 29.84 36.5114 33.64 36.5114C40.74 36.5114 46.44 29.5114 46.44 20.9114C46.44 15.7114 44.34 12.1114 41.24 9.91138Z" fill="#DD8ABC"/>
<path d="M33.64 37.3114C26.14 37.3114 20.04 30.0114 20.04 20.9114C20.04 12.6114 25.54 7.01135 33.64 7.01135C41.74 7.01135 47.24 12.6114 47.24 20.9114C47.14 29.9114 41.04 37.3114 33.64 37.3114ZM33.64 8.51135C26.34 8.51135 21.54 13.4114 21.54 20.9114C21.54 29.1114 26.94 35.8114 33.64 35.8114C40.34 35.8114 45.64 29.1114 45.64 20.9114C45.64 13.3114 40.94 8.51135 33.64 8.51135Z" fill="#655E62"/>
<path d="M45.54 15.7114C43.74 10.4114 39.04 7.71143 33.54 7.71143C28.04 7.71143 23.34 10.5114 21.54 15.7114C28.44 18.1114 38.74 18.1114 45.54 15.7114Z" fill="white"/>
<path d="M41.34 16.8114C42.84 16.5114 44.24 16.2114 45.54 15.7114C43.74 10.4114 39.04 7.71143 33.54 7.71143C32.64 7.71143 31.74 7.81143 30.94 7.91143C35.74 8.71143 39.54 11.8114 41.34 16.8114Z" fill="#DD8ABC"/>
<path d="M33.54 18.3114C29.14 18.3114 24.84 17.7114 21.34 16.5114C20.94 16.4114 20.74 15.9114 20.84 15.5114C22.64 10.2114 27.44 7.01135 33.54 7.01135C39.64 7.01135 44.44 10.2114 46.24 15.5114C46.34 15.9114 46.14 16.3114 45.74 16.5114C42.34 17.6114 37.94 18.3114 33.54 18.3114ZM22.54 15.3114C28.94 17.3114 38.14 17.3114 44.54 15.3114C42.74 11.0114 38.64 8.51135 33.54 8.51135C28.44 8.51135 24.34 11.0114 22.54 15.3114Z" fill="#655E62"/>
<path d="M29.54 20.4114C31.1968 20.4114 32.54 19.0682 32.54 17.4114C32.54 15.7545 31.1968 14.4114 29.54 14.4114C27.8831 14.4114 26.54 15.7545 26.54 17.4114C26.54 19.0682 27.8831 20.4114 29.54 20.4114Z" fill="white"/>
<path d="M31.54 15.1113C31.54 15.2113 31.54 15.3113 31.54 15.3113C31.54 17.0113 30.24 18.3113 28.54 18.3113C27.74 18.3113 27.14 18.0113 26.54 17.5113C26.64 19.0113 27.94 20.3113 29.54 20.3113C31.24 20.3113 32.54 19.0113 32.54 17.3113C32.54 16.5113 32.14 15.7113 31.54 15.1113Z" fill="#DD8ABC"/>
<path d="M29.54 21.1114C27.44 21.1114 25.74 19.4114 25.74 17.3114C25.74 15.2114 27.44 13.5114 29.54 13.5114C31.64 13.5114 33.34 15.2114 33.34 17.3114C33.34 19.4114 31.64 21.1114 29.54 21.1114ZM29.54 15.1114C28.34 15.1114 27.24 16.1114 27.24 17.4114C27.24 18.6114 28.24 19.7114 29.54 19.7114C30.74 19.7114 31.84 18.7114 31.84 17.4114C31.84 16.1114 30.84 15.1114 29.54 15.1114Z" fill="#655E62"/>
<path d="M17.94 32.3114H13.94C13.54 32.3114 13.14 32.0114 13.14 31.5114C13.14 31.1114 13.44 30.7114 13.94 30.7114H17.94C18.34 30.7114 18.74 31.0114 18.74 31.5114C18.64 31.9114 18.34 32.3114 17.94 32.3114Z" fill="#655E62"/>
<path d="M15.94 34.3114C15.54 34.3114 15.14 34.0114 15.14 33.5114V29.5114C15.14 29.1114 15.44 28.7114 15.94 28.7114C16.44 28.7114 16.74 29.0114 16.74 29.5114V33.5114C16.64 33.9114 16.34 34.3114 15.94 34.3114Z" fill="#655E62"/>
<path d="M12.64 15.1114H8.63997C8.23997 15.1114 7.83997 14.8114 7.83997 14.3114C7.83997 13.9114 8.13997 13.5114 8.63997 13.5114H12.64C13.04 13.5114 13.44 13.8114 13.44 14.3114C13.34 14.8114 13.04 15.1114 12.64 15.1114Z" fill="#655E62"/>
<path d="M10.64 17.1113C10.24 17.1113 9.83997 16.8113 9.83997 16.4113V12.4113C9.83997 12.0113 10.14 11.6113 10.64 11.6113C11.04 11.6113 11.44 11.9113 11.44 12.4113V16.4113C11.34 16.8113 11.04 17.1113 10.64 17.1113Z" fill="#655E62"/>
<path d="M61.74 39.0114H57.74C57.34 39.0114 56.94 38.7114 56.94 38.2114C56.94 37.8114 57.24 37.4114 57.74 37.4114H61.74C62.14 37.4114 62.54 37.7114 62.54 38.2114C62.54 38.7114 62.24 39.0114 61.74 39.0114Z" fill="#655E62"/>
<path d="M59.74 41.0114C59.34 41.0114 58.94 40.7114 58.94 40.2114V36.2114C58.94 35.8114 59.24 35.4114 59.74 35.4114C60.14 35.4114 60.54 35.7114 60.54 36.2114V40.2114C60.54 40.7114 60.24 41.0114 59.74 41.0114Z" fill="#655E62"/>
<path d="M55.74 23.0114H51.74C51.34 23.0114 50.94 22.7114 50.94 22.2114C50.94 21.8114 51.24 21.4114 51.74 21.4114H55.74C56.14 21.4114 56.54 21.7114 56.54 22.2114C56.54 22.7114 56.24 23.0114 55.74 23.0114Z" fill="#655E62"/>
<path d="M53.74 25.0114C53.34 25.0114 52.94 24.7114 52.94 24.2114V20.2114C52.94 19.8114 53.24 19.4114 53.74 19.4114C54.14 19.4114 54.54 19.7114 54.54 20.2114V24.2114C54.54 24.7114 54.24 25.0114 53.74 25.0114Z" fill="#655E62"/>
<path d="M33.64 44.8114L22.94 40.5114L29.24 49.3114L33.64 44.8114Z" fill="white"/>
<path d="M33.64 44.8113L23.04 40.6113L24.94 43.2113L30.04 45.2113C30.34 45.3113 30.44 45.8113 30.24 46.0113L28.44 47.9113L29.44 49.3113L33.64 44.8113Z" fill="#DD8ABC"/>
<path d="M29.24 50.1114C28.94 50.1114 28.74 50.0114 28.64 49.8114L22.34 41.0114C22.14 40.7114 22.14 40.4114 22.34 40.1114C22.54 39.8114 22.94 39.7114 23.24 39.9114L33.84 44.1114C34.04 44.2114 34.24 44.4114 34.34 44.6114C34.44 44.8114 34.34 45.1114 34.14 45.3114L29.84 49.8114C29.64 50.0114 29.44 50.1114 29.24 50.1114ZM25.04 42.2114L29.34 48.2114L32.24 45.1114L25.04 42.2114Z" fill="#655E62"/>
<path d="M33.64 44.8114L44.24 40.5114L37.94 49.3114L33.64 44.8114Z" fill="white"/>
<path d="M44.24 40.5114L41.14 41.8114L36.64 48.0114L37.94 49.3114L44.24 40.5114Z" fill="#DD8ABC"/>
<path d="M37.94 50.1114C37.74 50.1114 37.54 50.0114 37.44 49.9114L33.14 45.4114C32.84 45.1114 32.84 44.9114 32.84 44.6114C32.94 44.4114 33.04 44.2114 33.34 44.1114L43.94 39.9114C44.24 39.8114 44.64 39.9114 44.84 40.1114C45.04 40.4114 45.04 40.7114 44.84 41.0114L38.54 49.8114C38.44 49.9114 38.24 50.1114 37.94 50.1114ZM34.94 45.1114L37.84 48.2114L42.14 42.2114L34.94 45.1114Z" fill="#655E62"/>
<path d="M22.94 40.5114L18.04 49.1114L26.54 65.7114L22.94 40.5114Z" fill="white"/>
<path d="M22.94 40.5114L18.04 49.0114L19.04 51.0114L21.24 47.2114C21.44 46.8114 22.14 46.9114 22.14 47.4114L24.04 60.7114L26.54 65.5114L22.94 40.5114Z" fill="#DD8ABC"/>
<path d="M26.54 66.4114C26.24 66.4114 26.04 66.2114 25.84 66.0114L17.34 49.4114C17.24 49.2114 17.24 48.9114 17.34 48.7114L22.24 40.2114C22.44 39.9114 22.74 39.8114 23.04 39.8114C23.34 39.9114 23.64 40.1114 23.64 40.4114L27.24 65.5114C27.34 65.9114 27.04 66.2114 26.74 66.3114C26.74 66.4114 26.64 66.4114 26.54 66.4114ZM18.94 49.1114L25.24 61.3114L22.54 42.8114L18.94 49.1114Z" fill="#655E62"/>
<path d="M44.24 40.5114L49.14 49.1114L40.64 65.7114L44.24 40.5114Z" fill="white"/>
<path d="M49.14 49.1113L44.24 40.6113L43.74 43.8113L46.54 48.7113C46.74 49.0113 46.74 49.4113 46.54 49.7113L41.44 59.6113L40.54 65.8113L49.14 49.1113Z" fill="#DD8ABC"/>
<path d="M40.64 66.4114C40.54 66.4114 40.44 66.4114 40.44 66.4114C40.04 66.3114 39.84 65.9114 39.84 65.5114L43.44 40.4114C43.44 40.1114 43.74 39.8114 44.04 39.8114C44.34 39.7114 44.64 39.9114 44.84 40.2114L49.74 48.7114C49.84 48.9114 49.84 49.2114 49.74 49.4114L41.24 66.0114C41.14 66.2114 40.84 66.4114 40.64 66.4114ZM44.64 42.8114L41.94 61.4114L48.24 49.2114L44.64 42.8114Z" fill="#655E62"/>
</g>
<defs>
<clipPath id="clip0_4_66">
<rect width="65.5" height="65.5" fill="white" transform="translate(0.839966 0.911377)"/>
</clipPath>
</defs>
</svg>
