<svg width="190" height="29" viewBox="0 0 190 29" fill="none" xmlns="http://www.w3.org/2000/svg">
<g clip-path="url(#clip0_316_1667)">
<g style="mix-blend-mode:hard-light">
<path d="M39.6891 0.551842H39.6479C39.4356 0.559348 39.2336 0.641845 39.0803 0.783653C38.927 0.925461 38.8331 1.11668 38.8164 1.32092L36.5464 26.5897L33.4177 13.1851C33.3746 12.9982 33.2665 12.831 33.1114 12.7115C32.9562 12.5919 32.7633 12.5272 32.5647 12.5281H28.4552C28.3101 12.5278 28.1672 12.5625 28.0395 12.629C27.9118 12.6955 27.8033 12.7917 27.724 12.9088L26.1431 15.2361L23.937 6.90634C23.8883 6.71437 23.7704 6.54536 23.6044 6.42951C23.4384 6.31366 23.2351 6.25854 23.0308 6.27399C22.8262 6.28526 22.6325 6.36637 22.4843 6.50281C22.336 6.63924 22.2429 6.82211 22.2217 7.01867L20.9678 17.5193L19.4209 13.1013C19.3624 12.9342 19.2511 12.7891 19.1026 12.6862C18.9541 12.5834 18.7758 12.5281 18.593 12.5281H0.526706C0.387144 12.5281 0.2533 12.5815 0.154614 12.6767C0.0559292 12.7719 0.000488281 12.901 0.000488281 13.0356C0.000488281 13.1702 0.0559292 13.2993 0.154614 13.3944C0.2533 13.4896 0.387144 13.5431 0.526706 13.5431H18.4652L20.2258 18.5722C20.2886 18.7542 20.4142 18.9099 20.5816 19.0134C20.7491 19.117 20.9482 19.162 21.1459 19.141C21.3437 19.1216 21.5287 19.0374 21.6699 18.9024C21.8112 18.7674 21.9001 18.5898 21.9219 18.3991L23.1564 8.06029L25.224 15.865C25.2659 16.0236 25.3549 16.1669 25.4799 16.2775C25.6049 16.3881 25.7606 16.4613 25.928 16.488C26.0951 16.5147 26.2668 16.494 26.422 16.4284C26.5771 16.3627 26.7092 16.2549 26.802 16.1182L28.5516 13.5431H32.4217L35.7714 27.8929C35.8141 28.0908 35.9304 28.2668 36.0982 28.3878C36.2661 28.5088 36.4741 28.5665 36.683 28.55C36.892 28.5391 37.0898 28.4551 37.2391 28.3136C37.3885 28.1721 37.4791 27.9829 37.4941 27.7815L39.7472 2.70891L42.4759 17.5521C42.5096 17.75 42.6164 17.9295 42.7766 18.0574C42.9367 18.1853 43.1395 18.253 43.3474 18.248C43.5555 18.2482 43.7567 18.1756 43.9137 18.0437C44.0706 17.9118 44.1727 17.7295 44.2009 17.5306L44.8235 13.544H67.3805L69.3442 18.922C69.4066 19.0975 69.5278 19.2479 69.6888 19.3495C69.8497 19.4511 70.0411 19.4981 70.2329 19.483C70.4248 19.4708 70.6071 19.3972 70.7509 19.2739C70.8947 19.1506 70.9917 18.9846 71.0267 18.8022L73.1391 8.28901L75.1612 17.0324C75.2017 17.2116 75.3021 17.373 75.447 17.4918C75.5919 17.6105 75.7733 17.68 75.9632 17.6895C76.1531 17.7014 76.3417 17.6527 76.5 17.5509C76.6583 17.4491 76.7775 17.2999 76.8391 17.1263L78.1427 13.5434H83.4558L85.451 24.948C85.485 25.1485 85.5933 25.3304 85.7559 25.4597C85.9184 25.589 86.1241 25.657 86.3348 25.651C86.5453 25.6474 86.7472 25.5701 86.903 25.4335C87.0588 25.2969 87.1578 25.1103 87.1815 24.9085L89.6504 5.09063L93.1477 19.4598C93.1923 19.6504 93.3049 19.8198 93.4657 19.9386C93.6265 20.0573 93.8255 20.1179 94.0279 20.1097C94.2304 20.1048 94.4247 20.0315 94.577 19.9026C94.7293 19.7738 94.8299 19.5975 94.8613 19.4045L96.3297 10.8425L97.5187 13.0847C97.5917 13.2232 97.7031 13.3395 97.8406 13.4205C97.9781 13.5016 98.1362 13.5442 98.2973 13.5437H117.078L118.362 18.2258C118.412 18.4084 118.524 18.5695 118.68 18.6834C118.836 18.7972 119.028 18.8571 119.224 18.8535C119.419 18.8499 119.608 18.783 119.76 18.6635C119.911 18.544 120.017 18.3788 120.06 18.1945L122.809 6.29057L125.861 18.5994C125.907 18.7862 126.018 18.9522 126.175 19.0699C126.333 19.1876 126.527 19.2499 126.726 19.2466C126.925 19.2433 127.117 19.1745 127.27 19.0516C127.423 18.9288 127.528 18.7592 127.568 18.5709L129.222 10.6989L129.989 12.9623C130.046 13.1316 130.157 13.279 130.306 13.3835C130.455 13.488 130.635 13.5442 130.82 13.544H136.627L139.2 26.9727C139.238 27.1728 139.351 27.3526 139.516 27.4791C139.681 27.6055 139.889 27.67 140.099 27.6607C140.31 27.6513 140.51 27.5688 140.663 27.4282C140.816 27.2877 140.91 27.0987 140.93 26.896L143.13 3.69921L146.384 18.3919C146.424 18.5795 146.531 18.748 146.684 18.8693C146.838 18.9906 147.03 19.0574 147.229 19.0587H147.239C147.436 19.0595 147.627 18.9957 147.782 18.8779C147.936 18.76 148.045 18.5951 148.089 18.4101L149.284 13.544H189.474C189.614 13.544 189.747 13.4905 189.846 13.3954C189.945 13.3002 190 13.1711 190 13.0365C190 12.9019 189.945 12.7728 189.846 12.6776C189.747 12.5825 189.614 12.529 189.474 12.529H149.144C148.947 12.5283 148.755 12.5922 148.601 12.7101C148.446 12.8281 148.338 12.9931 148.293 13.1782L147.248 17.4336L143.914 2.38131C143.87 2.184 143.755 2.0083 143.588 1.88611C143.422 1.76391 143.215 1.70333 143.007 1.71537C142.798 1.72742 142.6 1.81128 142.45 1.95173C142.3 2.09218 142.207 2.2799 142.188 2.48081L139.999 25.5622L137.635 13.2186C137.597 13.0253 137.49 12.8507 137.333 12.7251C137.176 12.5994 136.979 12.5305 136.775 12.5302H130.949L130.014 9.76398C129.954 9.58721 129.835 9.43455 129.675 9.32977C129.516 9.225 129.325 9.17399 129.133 9.1847C128.94 9.19541 128.757 9.26724 128.611 9.389C128.465 9.51075 128.365 9.6756 128.326 9.85785L126.696 17.6066L123.652 5.33031C123.607 5.14567 123.499 4.98116 123.344 4.86365C123.19 4.74614 122.999 4.68255 122.802 4.68326H122.795C122.598 4.68394 122.406 4.74962 122.252 4.86946C122.098 4.98931 121.991 5.15616 121.949 5.34251L119.191 17.2837L118.06 13.1563C118.01 12.9766 117.9 12.8178 117.748 12.7043C117.595 12.5909 117.407 12.5293 117.215 12.529H98.406L97.0194 9.91667C96.9356 9.7586 96.8022 9.63012 96.6382 9.54954C96.4742 9.46896 96.288 9.44042 96.1061 9.46798C95.9245 9.49505 95.7563 9.57679 95.6257 9.70154C95.495 9.82629 95.4086 9.98766 95.3788 10.1626L93.9698 18.3919L90.4456 3.91354C90.4008 3.71954 90.2855 3.54741 90.1206 3.42831C89.9556 3.30921 89.7519 3.25103 89.5462 3.26429C89.3404 3.27308 89.1446 3.35266 88.9944 3.48863C88.8441 3.6246 88.7493 3.80797 88.7271 4.00553L86.2854 23.6072L84.4687 13.2327C84.4346 13.036 84.3292 12.8574 84.1713 12.7286C84.0133 12.5999 83.8131 12.5295 83.6063 12.5299H78.0165C77.8356 12.5302 77.6592 12.5845 77.5116 12.6854C77.364 12.7862 77.2524 12.9287 77.1921 13.0931L76.0527 16.2246L73.9803 7.2621C73.9378 7.07248 73.8283 6.90299 73.6705 6.78267C73.5127 6.66234 73.3165 6.59866 73.1154 6.60253C72.9143 6.60391 72.72 6.67269 72.5657 6.79707C72.4114 6.92145 72.3067 7.0937 72.2696 7.28432L70.1193 17.9871L68.3317 13.0916C68.2714 12.927 68.1597 12.7846 68.0121 12.6837C67.8644 12.5829 67.688 12.5286 67.507 12.5284H44.671C44.4622 12.5294 44.2605 12.6021 44.1022 12.7335C43.9438 12.8648 43.8391 13.0462 43.8067 13.2452L43.323 16.3428L40.5482 1.24771C40.5138 1.05231 40.4086 0.875061 40.2512 0.747597C40.0938 0.620133 39.8946 0.550754 39.6891 0.551842V0.551842Z" fill="#DD8ABC"/>
</g>
</g>
<defs>
<clipPath id="clip0_316_1667">
<rect width="190" height="28" fill="white" transform="matrix(1 0 0 -1 0 28.5518)"/>
</clipPath>
</defs>
</svg>
