<svg width="191" height="29" viewBox="0 0 191 29" fill="none" xmlns="http://www.w3.org/2000/svg">
<mask id="mask0_316_1671" style="mask-type:alpha" maskUnits="userSpaceOnUse" x="0" y="0" width="191" height="29">
<g clip-path="url(#clip0_316_1671)">
<g style="mix-blend-mode:hard-light">
<path d="M39.9587 0.231041H39.9175C39.7052 0.238547 39.5032 0.321044 39.3498 0.462852C39.1965 0.60466 39.1026 0.795877 39.086 1.00012L36.8159 26.2689L33.6872 12.8643C33.6442 12.6774 33.5361 12.5102 33.3809 12.3907C33.2258 12.2711 33.0329 12.2064 32.8343 12.2073H28.7248C28.5796 12.207 28.4367 12.2417 28.309 12.3082C28.1813 12.3747 28.0729 12.4709 27.9935 12.588L26.4126 14.9153L24.2065 6.58554C24.1578 6.39357 24.04 6.22456 23.874 6.10871C23.708 5.99286 23.5046 5.93773 23.3004 5.95319C23.0958 5.96446 22.902 6.04557 22.7538 6.18201C22.6056 6.31844 22.5125 6.50131 22.4912 6.69787L21.2373 17.1985L19.6905 12.7805C19.632 12.6134 19.5206 12.4683 19.3721 12.3654C19.2236 12.2626 19.0454 12.2073 18.8625 12.2073H0.796237C0.656675 12.2073 0.522831 12.2607 0.424146 12.3559C0.32546 12.4511 0.27002 12.5802 0.27002 12.7148C0.27002 12.8494 0.32546 12.9785 0.424146 13.0736C0.522831 13.1688 0.656675 13.2223 0.796237 13.2223H18.7347L20.4954 18.2514C20.5582 18.4334 20.6837 18.5891 20.8512 18.6926C21.0186 18.7962 21.2178 18.8412 21.4155 18.8202C21.6133 18.8008 21.7982 18.7166 21.9395 18.5816C22.0807 18.4466 22.1696 18.269 22.1915 18.0783L23.4259 7.73949L25.4935 15.5442C25.5355 15.7028 25.6244 15.8461 25.7494 15.9567C25.8744 16.0673 26.0301 16.1405 26.1975 16.1672C26.3647 16.1939 26.5363 16.1732 26.6915 16.1076C26.8467 16.0419 26.9787 15.9341 27.0715 15.7974L28.8211 13.2223H32.6912L36.0409 27.5721C36.0836 27.77 36.1999 27.946 36.3678 28.067C36.5357 28.188 36.7436 28.2457 36.9525 28.2292C37.1616 28.2183 37.3593 28.1343 37.5087 27.9928C37.658 27.8513 37.7486 27.6621 37.7636 27.4607L40.0167 2.38811L42.7455 17.2313C42.7792 17.4292 42.886 17.6087 43.0461 17.7366C43.2063 17.8645 43.409 17.9322 43.6169 17.9272C43.8251 17.9274 44.0263 17.8548 44.1832 17.7229C44.3402 17.591 44.4422 17.4087 44.4704 17.2098L45.093 13.2232H67.65L69.6138 18.6012C69.6761 18.7767 69.7974 18.9271 69.9583 19.0287C70.1192 19.1303 70.3107 19.1773 70.5024 19.1622C70.6944 19.15 70.8766 19.0764 71.0204 18.9531C71.1642 18.8298 71.2613 18.6638 71.2963 18.4814L73.4086 7.96821L75.4307 16.7116C75.4712 16.8908 75.5716 17.0522 75.7165 17.171C75.8614 17.2897 76.0428 17.3592 76.2327 17.3687C76.4226 17.3806 76.6112 17.3319 76.7695 17.2301C76.9279 17.1283 77.047 16.9791 77.1087 16.8055L78.4122 13.2226H83.7253L85.7205 24.6272C85.7545 24.8277 85.8628 25.0096 86.0254 25.1389C86.1879 25.2682 86.3937 25.3362 86.6043 25.3302C86.8148 25.3266 87.0168 25.2493 87.1725 25.1127C87.3283 24.9761 87.4273 24.7895 87.451 24.5877L89.9199 4.76983L93.4172 19.139C93.4619 19.3296 93.5744 19.499 93.7352 19.6178C93.8961 19.7365 94.095 19.7971 94.2974 19.7889C94.4999 19.784 94.6942 19.7107 94.8465 19.5818C94.9988 19.453 95.0994 19.2767 95.1308 19.0837L96.5992 10.5217L97.7882 12.7639C97.8612 12.9024 97.9727 13.0187 98.1101 13.0997C98.2476 13.1808 98.4057 13.2234 98.5668 13.2229H117.348L118.631 17.905C118.681 18.0876 118.793 18.2487 118.95 18.3626C119.106 18.4764 119.297 18.5363 119.493 18.5327C119.689 18.5291 119.878 18.4622 120.029 18.3427C120.181 18.2232 120.287 18.058 120.329 17.8737L123.078 5.96977L126.13 18.2786C126.177 18.4654 126.288 18.6314 126.445 18.7491C126.602 18.8668 126.797 18.9291 126.996 18.9258C127.195 18.9225 127.387 18.8537 127.54 18.7308C127.693 18.608 127.798 18.4384 127.837 18.2501L129.492 10.3781L130.258 12.6415C130.315 12.8108 130.426 12.9582 130.576 13.0627C130.725 13.1672 130.905 13.2234 131.089 13.2232H136.896L139.469 26.6519C139.508 26.852 139.62 27.0318 139.786 27.1583C139.951 27.2847 140.158 27.3492 140.369 27.3399C140.58 27.3305 140.78 27.248 140.932 27.1074C141.085 26.9669 141.18 26.7779 141.199 26.5752L143.399 3.37841L146.653 18.0711C146.694 18.2587 146.8 18.4272 146.954 18.5485C147.108 18.6698 147.3 18.7366 147.499 18.7379H147.508C147.705 18.7387 147.897 18.6749 148.051 18.5571C148.206 18.4392 148.314 18.2743 148.359 18.0893L149.554 13.2232H189.743C189.883 13.2232 190.017 13.1697 190.116 13.0746C190.214 12.9794 190.27 12.8503 190.27 12.7157C190.27 12.5811 190.214 12.452 190.116 12.3568C190.017 12.2617 189.883 12.2082 189.743 12.2082H149.413C149.216 12.2075 149.025 12.2714 148.87 12.3893C148.716 12.5073 148.607 12.6723 148.562 12.8574L147.517 17.1128L144.183 2.06051C144.14 1.8632 144.024 1.6875 143.858 1.5653C143.691 1.44311 143.485 1.38253 143.276 1.39457C143.067 1.40662 142.87 1.49048 142.72 1.63093C142.57 1.77138 142.477 1.9591 142.458 2.16001L140.269 25.2414L137.904 12.8978C137.866 12.7045 137.76 12.5299 137.603 12.4043C137.446 12.2786 137.248 12.2097 137.044 12.2094H131.219L130.283 9.44318C130.223 9.26641 130.104 9.11375 129.945 9.00897C129.785 8.9042 129.595 8.85319 129.402 8.8639C129.21 8.87461 129.026 8.94644 128.88 9.0682C128.734 9.18995 128.635 9.3548 128.596 9.53704L126.965 17.2858L123.922 5.00951C123.877 4.82486 123.768 4.66036 123.614 4.54285C123.459 4.42534 123.268 4.36175 123.072 4.36246H123.065C122.867 4.36314 122.675 4.42882 122.521 4.54866C122.368 4.66851 122.261 4.83536 122.218 5.02171L119.461 16.9629L118.329 12.8355C118.28 12.6558 118.17 12.497 118.017 12.3835C117.864 12.2701 117.677 12.2085 117.484 12.2082H98.6755L97.2889 9.59586C97.2051 9.4378 97.0717 9.30931 96.9077 9.22874C96.7437 9.14816 96.5575 9.11962 96.3757 9.14718C96.194 9.17425 96.0258 9.25599 95.8952 9.38074C95.7646 9.50548 95.6782 9.66686 95.6483 9.8418L94.2393 18.0711L90.7151 3.59274C90.6704 3.39874 90.5551 3.2266 90.3901 3.10751C90.2251 2.98841 90.0214 2.93023 89.8158 2.94349C89.6099 2.95228 89.4142 3.03186 89.2639 3.16783C89.1136 3.3038 89.0188 3.48716 88.9966 3.68473L86.555 23.2864L84.7382 12.9119C84.7041 12.7152 84.5987 12.5366 84.4408 12.4078C84.2828 12.2791 84.0826 12.2087 83.8759 12.2091H78.286C78.1051 12.2094 77.9288 12.2637 77.7812 12.3646C77.6336 12.4654 77.5219 12.6079 77.4616 12.7723L76.3223 15.9038L74.2498 6.9413C74.2074 6.75168 74.0978 6.58219 73.9401 6.46187C73.7823 6.34154 73.586 6.27786 73.3849 6.28172C73.1838 6.28311 72.9895 6.35189 72.8352 6.47627C72.6809 6.60065 72.5762 6.7729 72.5391 6.96352L70.3888 17.6663L68.6012 12.7708C68.5409 12.6062 68.4293 12.4638 68.2816 12.3629C68.1339 12.2621 67.9575 12.2078 67.7766 12.2076H44.9405C44.7317 12.2086 44.53 12.2813 44.3717 12.4127C44.2133 12.544 44.1086 12.7254 44.0763 12.9244L43.5926 16.022L40.8177 0.92691C40.7834 0.731513 40.6781 0.554261 40.5207 0.426796C40.3634 0.299332 40.1642 0.229953 39.9587 0.231041V0.231041Z" fill="#24B2DF"/>
</g>
</g>
</mask>
<g mask="url(#mask0_316_1671)">
<rect x="126.327" y="-41.2354" width="70.7987" height="97.8796" fill="#2FBDEA"/>
</g>
<defs>
<clipPath id="clip0_316_1671">
<rect width="190" height="28" fill="white" transform="matrix(1 0 0 -1 0.269531 28.231)"/>
</clipPath>
</defs>
</svg>
