<svg width="366" height="546" viewBox="0 0 366 546" fill="none" xmlns="http://www.w3.org/2000/svg">
<path d="M365.393 7.75219C365.382 7.47254 365.299 7.20044 365.155 6.96108C365.01 6.72172 364.807 6.52287 364.565 6.38317C360.472 3.89409 296.941 22.4461 244.238 48.1666C213.981 62.9352 185.72 83.3125 166.274 98.1641C165.214 98.9938 164.22 98.9938 162.554 98.9938H162.322H136.497L163.706 47.8845C163.813 47.6918 163.874 47.4774 163.885 47.2575C163.897 47.0376 163.858 46.8179 163.772 46.6151C163.685 46.416 163.555 46.2386 163.392 46.0952C163.229 45.9518 163.036 45.846 162.828 45.7854L128.568 35.0989C128.198 34.984 127.798 35.0165 127.45 35.1896C127.103 35.3626 126.836 35.6629 126.704 36.0282L103.696 101.11L82.1049 125.046C75.3691 102.437 70.2074 80.8318 64.7971 58.206C60.5219 40.351 56.1059 21.8902 50.7122 2.01897C50.6113 1.66085 50.3826 1.35237 50.0695 1.152C49.7564 0.951634 49.3807 0.873395 49.0138 0.932118C36.5362 3.02295 28.9635 4.05172 20.1978 5.23819L11.6226 6.40809C11.4066 6.43919 11.1999 6.51687 11.0168 6.63577C10.8337 6.75466 10.6786 6.9119 10.5621 7.0967C10.4457 7.28764 10.3735 7.50224 10.3505 7.72474C10.3276 7.94724 10.3546 8.17205 10.4295 8.38276L11.78 12.5312C20.6783 40.0273 26.0471 56.6212 32.493 83.885C33.3796 87.627 35.4177 99.8484 38.3838 119.238L29.9992 160.308C22.1117 172.961 9.00446 197.13 2.65798 211.89C0.998293 215.789 0.233819 220.011 0.420968 224.245C1.11693 240.59 3.51136 280.838 10.7692 301.464C10.8884 301.784 11.1136 302.054 11.4072 302.228C12.4827 313.32 14.4218 324.311 17.2068 335.1C23.4539 358.746 33.7773 379.074 51.8059 403.085C89.6196 453.473 137.972 493.92 191.528 520.072C210.754 529.437 231.323 535.736 252.49 538.741C273.245 541.711 301.133 545.254 316.146 545.254C318.167 545.254 322.907 545.254 339.344 508.54C347.298 490.793 354.2 472.813 354.258 472.639C354.317 472.491 354.348 472.333 354.349 472.174C354.697 464.864 355.103 457.024 355.534 448.752C358.674 388.906 362.99 306.949 350.737 238.341C348.599 226.377 306.825 156.276 249.152 140.246C248.962 140.192 248.764 140.175 248.568 140.197C248.373 140.22 248.183 140.28 248.011 140.376C247.838 140.471 247.687 140.6 247.564 140.754C247.441 140.908 247.35 141.085 247.296 141.275C247.241 141.465 247.225 141.663 247.247 141.859C247.269 142.055 247.33 142.245 247.425 142.417C247.52 142.59 247.649 142.742 247.803 142.865C247.957 142.988 248.134 143.079 248.323 143.134C278.249 151.431 302.865 174.587 318.242 192.542C336.121 213.409 346.809 233.487 347.762 238.864C359.933 307.131 355.65 388.898 352.526 448.594C352.095 456.783 351.698 464.549 351.35 471.826C350.521 473.95 344.009 490.759 336.569 507.361C321.655 540.607 316.908 542.292 316.104 542.292C301.266 542.292 273.535 538.774 252.88 535.812C232.021 532.849 211.751 526.643 192.804 517.417C139.637 491.498 91.7241 451.357 54.1672 401.351C36.4037 377.672 26.2046 357.651 20.0652 334.395C13.5116 309.595 11.432 280.183 13.3211 239.021C13.8679 227.115 34.4484 200.955 69.7931 167.253C86.7032 151.115 105.105 140.96 124.592 130.199C130.143 127.137 135.884 123.968 141.643 120.624C144.219 119.131 149.149 115.289 155.959 109.971C174.303 95.6501 208.446 69.0086 245.523 50.9129C298.83 24.902 353.777 9.89284 362.344 9.13782C362.502 17.161 362.278 24.5702 362.071 31.7553C361.864 38.9405 361.632 46.4077 361.789 54.4889C339.17 58.2806 316.577 65.64 286.551 78.9732C272.592 85.1817 259.063 92.3164 246.053 100.33C245.719 100.531 245.478 100.856 245.382 101.234L234.76 142.387C234.67 142.75 234.717 143.135 234.893 143.465L264.338 197.761C263.986 197.763 263.646 197.889 263.377 198.118L222.78 233.695C222.558 233.888 222.396 234.142 222.316 234.425L201.188 312.217L169.067 322.439C167.985 320.504 166.403 318.897 164.488 317.784C162.573 316.672 160.394 316.096 158.18 316.117C151.419 316.117 145.918 321.344 145.918 327.732C145.918 334.121 151.419 339.348 158.18 339.348C164.941 339.348 170.442 334.121 170.442 327.732C170.437 326.894 170.336 326.059 170.144 325.243L202.879 314.831C203.118 314.755 203.334 314.62 203.508 314.439C203.681 314.258 203.807 314.036 203.873 313.794L225.1 235.653L265.399 200.374C265.488 200.284 265.566 200.184 265.631 200.076L277.23 221.498L275.971 297.83L200.84 393.245C198.623 392.419 196.206 392.292 193.914 392.88C191.335 393.537 189.058 395.057 187.46 397.188C185.861 399.319 185.038 401.932 185.126 404.596C185.214 407.259 186.208 409.813 187.943 411.833C189.679 413.853 192.051 415.219 194.668 415.704C197.284 416.19 199.988 415.765 202.331 414.501C204.673 413.237 206.515 411.209 207.549 408.754C208.584 406.299 208.749 403.563 208.019 401.001C207.289 398.438 205.706 396.202 203.533 394.664L253.858 330.777L262.391 381.853C262.429 382.07 262.511 382.276 262.632 382.459L283.56 412.917C283.664 413.066 283.796 413.193 283.949 413.291C282.422 414.583 281.252 416.248 280.553 418.125C279.854 420.002 279.649 422.027 279.959 424.006C280.268 425.985 281.081 427.851 282.32 429.424C283.558 430.997 285.18 432.224 287.029 432.987C288.879 433.751 290.893 434.024 292.879 433.781C294.864 433.538 296.754 432.788 298.366 431.602C299.978 430.415 301.257 428.833 302.081 427.008C302.906 425.183 303.247 423.176 303.072 421.181C302.903 419.294 302.278 417.476 301.253 415.884C300.227 414.292 298.831 412.974 297.183 412.041C295.536 411.109 293.688 410.592 291.797 410.533C289.906 410.475 288.029 410.877 286.327 411.706C286.294 411.503 286.215 411.309 286.095 411.142L265.382 380.957L256.451 327.508L278.721 299.224C278.924 298.969 279.038 298.654 279.045 298.328L280.32 221.092C280.325 220.835 280.265 220.581 280.147 220.353L237.892 142.503L248.215 102.503C260.954 94.6908 274.192 87.7258 287.843 81.6532C318.192 68.1789 340.869 60.861 363.628 57.1772C363.988 57.121 364.314 56.936 364.547 56.6567C364.78 56.3774 364.904 56.0227 364.896 55.6588C364.689 47.1544 364.896 39.3387 365.145 31.7884C365.393 24.2382 365.6 16.3395 365.393 7.75219ZM154.178 107.556C147.459 112.8 142.579 116.592 140.201 117.977C134.468 121.296 128.742 124.465 123.208 127.527C103.547 138.379 84.9965 148.601 67.7798 165.029C46.6856 185.149 11.1835 221.449 10.3881 238.872C9.52629 255.388 9.5014 271.937 10.3135 288.455C5.70694 267.156 3.98361 237.561 3.41193 224.153C3.24471 220.372 3.92706 216.601 5.40867 213.118C11.7469 198.383 24.8624 174.197 32.6753 161.677C32.7737 161.529 32.8413 161.363 32.8742 161.188L41.3665 119.562C41.3997 119.386 41.3997 119.206 41.3665 119.031C39.2704 105.349 36.5362 88.0252 35.3929 83.1798C28.8807 55.7999 23.4953 39.1478 14.5721 11.5771L13.7436 9.08799L20.5375 8.15873C29.0133 7.01375 36.3705 6.01817 48.1024 4.06839C53.3469 23.4003 57.6553 41.4047 61.8227 58.8283C68.5006 86.7475 74.8057 113.115 84.1514 141.798C84.2747 142.176 84.5428 142.49 84.897 142.67C85.2512 142.851 85.6625 142.883 86.0404 142.76C86.4182 142.637 86.7316 142.368 86.9118 142.014C87.092 141.659 87.1243 141.247 87.0015 140.869C85.6262 136.645 84.3254 132.48 83.066 128.34L106.132 102.885C106.264 102.741 106.365 102.572 106.43 102.387L129.057 38.3846L160.177 48.0754L132.67 99.7405C132.547 99.9689 132.487 100.225 132.493 100.484C132.5 100.743 132.574 100.996 132.708 101.218C132.841 101.439 133.03 101.623 133.256 101.749C133.482 101.876 133.737 101.941 133.995 101.939H161.394C158.776 103.964 156.365 105.847 154.178 107.556ZM158.213 336.361C153.109 336.361 148.958 332.478 148.958 327.708C148.958 322.937 153.101 319.054 158.213 319.054C163.325 319.054 167.468 322.937 167.468 327.708C167.468 332.478 163.317 336.361 158.213 336.361ZM205.522 404.089C205.53 405.811 205.027 407.497 204.078 408.932C203.128 410.368 201.775 411.489 200.188 412.153C198.602 412.817 196.854 412.995 195.167 412.663C193.48 412.332 191.929 411.506 190.711 410.291C189.493 409.076 188.662 407.526 188.325 405.837C187.987 404.149 188.158 402.398 188.815 400.807C189.472 399.216 190.587 397.856 192.016 396.9C193.446 395.944 195.128 395.434 196.847 395.436C199.142 395.436 201.343 396.346 202.969 397.968C204.595 399.59 205.513 401.791 205.522 404.089ZM300.164 422.143C300.17 423.865 299.667 425.549 298.716 426.983C297.766 428.418 296.413 429.537 294.827 430.2C293.241 430.864 291.494 431.041 289.807 430.709C288.121 430.377 286.57 429.551 285.353 428.337C284.135 427.122 283.305 425.573 282.967 423.885C282.629 422.198 282.799 420.448 283.456 418.857C284.112 417.266 285.225 415.906 286.653 414.949C288.082 413.992 289.762 413.481 291.481 413.481C293.778 413.479 295.983 414.39 297.611 416.014C299.239 417.638 300.157 419.842 300.164 422.143Z" fill="#DEDEDE"/>
</svg>
